# MagicaVoxel @ Ephtracy

# group
o 

# material
mtllib Desierto_Piso_Var1.mtl
usemtl palette

# normals
vn -1 0 0
vn 1 0 0
vn 0 0 1
vn 0 0 -1
vn 0 -1 0
vn 0 1 0

# texcoords
vt 0.783203 0.5
vt 0.845703 0.5
vt 0.849609 0.5

# verts
v 0 2 0
v 0 2 -4
v 0 3.3 0
v 0 3.3 -4
v 0 3.7 0
v 0 3.7 -4
v 0 4.3 0
v 0 4.3 -4
v 0 4.6 0
v 0 4.6 -4
v 0 5 -2.9
v 0 5 -3
v 0 5.1 0
v 0 5.1 -0.2
v 0 5.1 -0.3
v 0 5.1 -0.9
v 0 5.1 -1
v 0 5.1 -1.8
v 0 5.1 -1.9
v 0 5.1 -2.2
v 0 5.1 -2.4
v 0 5.1 -2.9
v 0 5.1 -3
v 0 5.1 -3.1
v 0 5.1 -4
v 0 5.2 -0.3
v 0 5.2 -0.4
v 0 5.2 -1
v 0 5.2 -1.1
v 0 5.2 -1.4
v 0 5.2 -1.5
v 0 5.2 -1.9
v 0 5.2 -2
v 0 5.2 -2.2
v 0 5.2 -2.3
v 0 5.2 -2.4
v 0 5.2 -2.5
v 0 5.2 -2.9
v 0 5.2 -3.1
v 0 5.2 -3.3
v 0 5.3 -0.2
v 0 5.3 -0.3
v 0 5.3 -0.4
v 0 5.3 -0.5
v 0 5.3 -0.6
v 0 5.3 -0.7
v 0 5.3 -0.9
v 0 5.3 -1
v 0 5.3 -1.1
v 0 5.3 -1.2
v 0 5.3 -1.3
v 0 5.3 -1.4
v 0 5.3 -1.5
v 0 5.3 -1.8
v 0 5.3 -1.9
v 0 5.3 -2.3
v 0 5.3 -2.4
v 0 5.3 -2.5
v 0 5.3 -2.6
v 0 5.3 -2.7
v 0 5.3 -2.8
v 0 5.3 -3.1
v 0 5.3 -3.3
v 0 5.3 -3.5
v 0 5.4 -0.3
v 0 5.4 -0.4
v 0 5.4 -0.5
v 0 5.4 -0.6
v 0 5.4 -1
v 0 5.4 -1.2
v 0 5.4 -1.3
v 0 5.4 -1.4
v 0 5.4 -2.4
v 0 5.4 -2.6
v 0 5.4 -2.7
v 0 5.4 -3.2
v 0 5.4 -3.3
v 0 5.4 -3.4
v 0 5.4 -3.5
v 0 5.5 -0.5
v 0 5.5 -0.7
v 0 5.5 -1.1
v 0 5.5 -1.2
v 0 5.5 -2.7
v 0 5.5 -2.8
v 0 5.5 -3.1
v 0 5.5 -3.2
v 0 5.5 -3.3
v 0 5.5 -3.4
v 0 5.6 0
v 0 5.6 -0.4
v 0 5.6 -0.5
v 0 5.6 -1.1
v 0 5.6 -1.3
v 0 5.6 -1.9
v 0 5.6 -2
v 0 5.6 -2.6
v 0 5.6 -2.7
v 0 5.6 -3.1
v 0 5.6 -3.3
v 0 5.6 -4
v 0 6 0
v 0 6 -4
v 4 2 0
v 4 2 -4
v 4 3.3 0
v 4 3.3 -4
v 4 3.7 0
v 4 3.7 -4
v 4 4.3 0
v 4 4.3 -4
v 4 4.6 0
v 4 4.6 -4
v 4 5.1 0
v 4 5.1 -1.5
v 4 5.1 -1.6
v 4 5.1 -4
v 4 5.2 -0.4
v 4 5.2 -0.6
v 4 5.2 -1.3
v 4 5.2 -1.5
v 4 5.2 -1.6
v 4 5.2 -2.3
v 4 5.2 -2.4
v 4 5.2 -3.3
v 4 5.2 -3.4
v 4 5.3 -0.4
v 4 5.3 -0.5
v 4 5.3 -1.5
v 4 5.3 -1.8
v 4 5.3 -2.4
v 4 5.3 -2.6
v 4 5.3 -3.2
v 4 5.3 -3.3
v 4 5.3 -3.8
v 4 5.3 -3.9
v 4 5.4 -1.3
v 4 5.4 -1.5
v 4 5.4 -2.3
v 4 5.4 -2.5
v 4 5.4 -3.1
v 4 5.4 -3.2
v 4 5.4 -3.3
v 4 5.4 -3.4
v 4 5.5 -0.4
v 4 5.5 -0.5
v 4 5.5 -1.4
v 4 5.5 -1.5
v 4 5.5 -1.8
v 4 5.5 -1.9
v 4 5.5 -3
v 4 5.5 -3.1
v 4 5.5 -3.2
v 4 5.5 -3.3
v 4 5.6 0
v 4 5.6 -0.4
v 4 5.6 -0.6
v 4 5.6 -1.4
v 4 5.6 -1.9
v 4 5.6 -2.5
v 4 5.6 -2.6
v 4 5.6 -3
v 4 5.6 -3.2
v 4 5.6 -3.8
v 4 5.6 -3.9
v 4 5.6 -4
v 4 6 0
v 4 6 -4
v 0 2 0
v 0 3.3 0
v 0 3.7 0
v 0 4.3 0
v 0 4.6 0
v 0 5.1 0
v 0 5.6 0
v 0 6 0
v 0.6 5.2 0
v 0.6 5.6 0
v 0.7 5.2 0
v 0.7 5.4 0
v 0.8 5.3 0
v 0.8 5.4 0
v 0.8 5.5 0
v 0.9 5.2 0
v 0.9 5.3 0
v 0.9 5.4 0
v 0.9 5.5 0
v 0.9 5.6 0
v 1 5.2 0
v 1 5.3 0
v 1.3 5.2 0
v 1.3 5.4 0
v 1.4 5.2 0
v 1.4 5.3 0
v 1.4 5.4 0
v 1.4 5.5 0
v 1.5 5.3 0
v 1.5 5.4 0
v 1.6 5.5 0
v 1.6 5.6 0
v 1.7 5.2 0
v 1.7 5.4 0
v 1.7 5.6 0
v 1.8 5.1 0
v 1.8 5.2 0
v 1.8 5.3 0
v 1.8 5.4 0
v 1.9 5.1 0
v 1.9 5.3 0
v 2.2 5.2 0
v 2.2 5.5 0
v 2.3 5.2 0
v 2.3 5.4 0
v 2.3 5.5 0
v 2.3 5.6 0
v 2.4 5.4 0
v 2.4 5.6 0
v 2.7 5.5 0
v 2.7 5.6 0
v 2.8 5.4 0
v 2.8 5.5 0
v 2.8 5.6 0
v 2.9 5.3 0
v 2.9 5.4 0
v 3 5.2 0
v 3 5.3 0
v 3 5.4 0
v 3 5.5 0
v 3.1 5.2 0
v 3.1 5.4 0
v 3.4 5.2 0
v 3.4 5.3 0
v 3.5 5.2 0
v 3.5 5.3 0
v 3.5 5.6 0
v 3.6 5.3 0
v 3.6 5.5 0
v 3.7 5.5 0
v 3.7 5.6 0
v 4 2 0
v 4 3.3 0
v 4 3.7 0
v 4 4.3 0
v 4 4.6 0
v 4 5.1 0
v 4 5.6 0
v 4 6 0
v 0 2 -4
v 0 3.3 -4
v 0 3.7 -4
v 0 4.3 -4
v 0 4.6 -4
v 0 5.1 -4
v 0 5.6 -4
v 0 6 -4
v 0.5 5.2 -4
v 0.5 5.3 -4
v 0.5 5.5 -4
v 0.5 5.6 -4
v 0.6 5.4 -4
v 0.6 5.5 -4
v 0.7 5.3 -4
v 0.7 5.4 -4
v 0.7 5.5 -4
v 0.7 5.6 -4
v 0.8 5.2 -4
v 0.8 5.5 -4
v 1 5.3 -4
v 1 5.4 -4
v 1.1 5.4 -4
v 1.1 5.5 -4
v 1.2 5.3 -4
v 1.2 5.4 -4
v 1.3 5.3 -4
v 1.3 5.4 -4
v 1.3 5.5 -4
v 1.3 5.6 -4
v 1.5 5.2 -4
v 1.5 5.3 -4
v 1.5 5.4 -4
v 1.6 5.2 -4
v 1.6 5.3 -4
v 1.6 5.5 -4
v 1.6 5.6 -4
v 1.8 5.3 -4
v 1.8 5.4 -4
v 1.9 5.4 -4
v 1.9 5.5 -4
v 2 5.3 -4
v 2 5.4 -4
v 2.1 5.3 -4
v 2.1 5.4 -4
v 2.1 5.5 -4
v 2.1 5.6 -4
v 2.2 5.4 -4
v 2.2 5.5 -4
v 2.3 5.2 -4
v 2.3 5.3 -4
v 2.3 5.5 -4
v 2.3 5.6 -4
v 2.4 5.2 -4
v 2.4 5.4 -4
v 2.7 5.2 -4
v 2.7 5.6 -4
v 2.8 5.2 -4
v 2.8 5.3 -4
v 2.8 5.5 -4
v 2.8 5.6 -4
v 2.9 5.2 -4
v 2.9 5.3 -4
v 2.9 5.4 -4
v 2.9 5.5 -4
v 3 5.2 -4
v 3 5.4 -4
v 3.1 5.1 -4
v 3.1 5.2 -4
v 3.2 5.2 -4
v 3.2 5.3 -4
v 3.3 5.1 -4
v 3.3 5.2 -4
v 3.3 5.5 -4
v 3.3 5.6 -4
v 3.4 5.2 -4
v 3.4 5.3 -4
v 3.4 5.5 -4
v 3.5 5.3 -4
v 3.5 5.4 -4
v 3.5 5.5 -4
v 3.5 5.6 -4
v 3.6 5.2 -4
v 3.6 5.4 -4
v 3.7 5.1 -4
v 3.7 5.2 -4
v 3.7 5.3 -4
v 3.7 5.5 -4
v 3.8 5.1 -4
v 3.8 5.3 -4
v 4 2 -4
v 4 3.3 -4
v 4 3.7 -4
v 4 4.3 -4
v 4 4.6 -4
v 4 5.1 -4
v 4 5.6 -4
v 4 6 -4
v 0 2 0
v 4 2 0
v 0 2 -4
v 4 2 -4
v 0 6 0
v 4 6 0
v 0 6 -4
v 4 6 -4

# faces
f 3/3/1 2/3/1 1/3/1
f 4/3/1 2/3/1 3/3/1
f 5/2/1 4/2/1 3/2/1
f 6/2/1 4/2/1 5/2/1
f 7/3/1 6/3/1 5/3/1
f 8/3/1 6/3/1 7/3/1
f 9/2/1 8/2/1 7/2/1
f 10/2/1 8/2/1 9/2/1
f 11/3/1 10/3/1 9/3/1
f 12/3/1 10/3/1 11/3/1
f 13/3/1 11/3/1 9/3/1
f 14/3/1 11/3/1 13/3/1
f 15/3/1 11/3/1 14/3/1
f 16/3/1 11/3/1 15/3/1
f 17/3/1 11/3/1 16/3/1
f 18/3/1 11/3/1 17/3/1
f 19/3/1 11/3/1 18/3/1
f 20/3/1 11/3/1 19/3/1
f 21/3/1 11/3/1 20/3/1
f 22/1/1 12/1/1 11/1/1
f 22/3/1 11/3/1 21/3/1
f 23/3/1 10/3/1 12/3/1
f 23/1/1 12/1/1 22/1/1
f 24/3/1 10/3/1 23/3/1
f 25/3/1 10/3/1 24/3/1
f 26/1/1 15/1/1 14/1/1
f 26/2/1 16/2/1 15/2/1
f 27/2/1 16/2/1 26/2/1
f 28/1/1 17/1/1 16/1/1
f 28/2/1 18/2/1 17/2/1
f 29/2/1 18/2/1 28/2/1
f 30/2/1 18/2/1 29/2/1
f 31/2/1 18/2/1 30/2/1
f 32/1/1 19/1/1 18/1/1
f 32/2/1 20/2/1 19/2/1
f 33/2/1 20/2/1 32/2/1
f 34/1/1 21/1/1 20/1/1
f 34/2/1 20/2/1 33/2/1
f 35/1/1 21/1/1 34/1/1
f 36/2/1 22/2/1 21/2/1
f 36/1/1 21/1/1 35/1/1
f 37/2/1 22/2/1 36/2/1
f 38/1/1 23/1/1 22/1/1
f 38/2/1 22/2/1 37/2/1
f 38/1/1 24/1/1 23/1/1
f 39/2/1 25/2/1 24/2/1
f 39/1/1 24/1/1 38/1/1
f 40/2/1 25/2/1 39/2/1
f 41/2/1 14/2/1 13/2/1
f 41/1/1 27/1/1 26/1/1
f 41/1/1 26/1/1 14/1/1
f 42/1/1 27/1/1 41/1/1
f 43/2/1 16/2/1 27/2/1
f 43/1/1 27/1/1 42/1/1
f 44/2/1 16/2/1 43/2/1
f 45/2/1 16/2/1 44/2/1
f 46/2/1 16/2/1 45/2/1
f 47/1/1 28/1/1 16/1/1
f 47/2/1 16/2/1 46/2/1
f 47/1/1 29/1/1 28/1/1
f 48/1/1 29/1/1 47/1/1
f 49/2/1 30/2/1 29/2/1
f 49/1/1 29/1/1 48/1/1
f 50/2/1 30/2/1 49/2/1
f 51/2/1 30/2/1 50/2/1
f 52/1/1 31/1/1 30/1/1
f 52/2/1 30/2/1 51/2/1
f 53/2/1 18/2/1 31/2/1
f 53/1/1 31/1/1 52/1/1
f 54/1/1 33/1/1 32/1/1
f 54/2/1 18/2/1 53/2/1
f 54/1/1 32/1/1 18/1/1
f 55/1/1 33/1/1 54/1/1
f 56/2/1 35/2/1 34/2/1
f 56/1/1 37/1/1 36/1/1
f 56/1/1 36/1/1 35/1/1
f 56/2/1 34/2/1 33/2/1
f 57/1/1 37/1/1 56/1/1
f 58/2/1 38/2/1 37/2/1
f 58/1/1 37/1/1 57/1/1
f 58/2/1 39/2/1 38/2/1
f 59/2/1 39/2/1 58/2/1
f 60/2/1 39/2/1 59/2/1
f 61/2/1 39/2/1 60/2/1
f 62/1/1 40/1/1 39/1/1
f 62/2/1 39/2/1 61/2/1
f 63/2/1 25/2/1 40/2/1
f 63/1/1 40/1/1 62/1/1
f 64/2/1 25/2/1 63/2/1
f 65/2/1 42/2/1 41/2/1
f 65/1/1 43/1/1 42/1/1
f 65/1/1 44/1/1 43/1/1
f 66/1/1 44/1/1 65/1/1
f 67/2/1 45/2/1 44/2/1
f 67/1/1 44/1/1 66/1/1
f 68/1/1 46/1/1 45/1/1
f 68/2/1 45/2/1 67/2/1
f 69/2/1 48/2/1 47/2/1
f 69/1/1 50/1/1 49/1/1
f 69/1/1 49/1/1 48/1/1
f 69/2/1 47/2/1 46/2/1
f 70/2/1 51/2/1 50/2/1
f 70/1/1 50/1/1 69/1/1
f 71/1/1 52/1/1 51/1/1
f 71/2/1 51/2/1 70/2/1
f 72/2/1 53/2/1 52/2/1
f 72/1/1 52/1/1 71/1/1
f 72/2/1 55/2/1 54/2/1
f 72/2/1 54/2/1 53/2/1
f 73/2/1 57/2/1 56/2/1
f 73/1/1 59/1/1 58/1/1
f 73/1/1 58/1/1 57/1/1
f 74/2/1 60/2/1 59/2/1
f 74/1/1 59/1/1 73/1/1
f 75/1/1 61/1/1 60/1/1
f 75/2/1 60/2/1 74/2/1
f 76/2/1 62/2/1 61/2/1
f 76/2/1 63/2/1 62/2/1
f 77/1/1 64/1/1 63/1/1
f 77/2/1 63/2/1 76/2/1
f 78/1/1 64/1/1 77/1/1
f 79/2/1 25/2/1 64/2/1
f 79/1/1 64/1/1 78/1/1
f 80/1/1 67/1/1 66/1/1
f 80/1/1 68/1/1 67/1/1
f 81/2/1 70/2/1 69/2/1
f 81/1/1 68/1/1 80/1/1
f 81/2/1 69/2/1 46/2/1
f 81/1/1 46/1/1 68/1/1
f 82/2/1 70/2/1 81/2/1
f 83/1/1 71/1/1 70/1/1
f 83/2/1 70/2/1 82/2/1
f 84/1/1 61/1/1 75/1/1
f 84/1/1 75/1/1 74/1/1
f 85/2/1 76/2/1 61/2/1
f 85/1/1 61/1/1 84/1/1
f 86/2/1 76/2/1 85/2/1
f 87/1/1 78/1/1 77/1/1
f 87/2/1 76/2/1 86/2/1
f 87/1/1 77/1/1 76/1/1
f 88/1/1 78/1/1 87/1/1
f 89/2/1 79/2/1 78/2/1
f 89/1/1 78/1/1 88/1/1
f 90/2/1 66/2/1 65/2/1
f 90/2/1 65/2/1 41/2/1
f 90/2/1 41/2/1 13/2/1
f 91/1/1 80/1/1 66/1/1
f 91/2/1 66/2/1 90/2/1
f 92/2/1 82/2/1 81/2/1
f 92/1/1 80/1/1 91/1/1
f 92/2/1 81/2/1 80/2/1
f 93/1/1 83/1/1 82/1/1
f 93/2/1 82/2/1 92/2/1
f 94/1/1 71/1/1 83/1/1
f 94/1/1 83/1/1 93/1/1
f 94/2/1 72/2/1 71/2/1
f 95/1/1 33/1/1 55/1/1
f 95/2/1 72/2/1 94/2/1
f 95/2/1 55/2/1 72/2/1
f 96/2/1 74/2/1 73/2/1
f 96/1/1 33/1/1 95/1/1
f 96/2/1 73/2/1 56/2/1
f 96/2/1 56/2/1 33/2/1
f 97/1/1 84/1/1 74/1/1
f 97/2/1 74/2/1 96/2/1
f 98/2/1 86/2/1 85/2/1
f 98/1/1 84/1/1 97/1/1
f 98/2/1 85/2/1 84/2/1
f 99/1/1 87/1/1 86/1/1
f 99/2/1 86/2/1 98/2/1
f 99/1/1 88/1/1 87/1/1
f 100/2/1 89/2/1 88/2/1
f 100/1/1 88/1/1 99/1/1
f 101/2/1 79/2/1 89/2/1
f 101/2/1 89/2/1 100/2/1
f 101/2/1 25/2/1 79/2/1
f 102/1/1 94/1/1 93/1/1
f 102/1/1 91/1/1 90/1/1
f 102/1/1 101/1/1 100/1/1
f 102/1/1 100/1/1 99/1/1
f 102/1/1 99/1/1 98/1/1
f 102/1/1 96/1/1 95/1/1
f 102/1/1 92/1/1 91/1/1
f 102/1/1 93/1/1 92/1/1
f 102/1/1 95/1/1 94/1/1
f 102/1/1 97/1/1 96/1/1
f 102/1/1 98/1/1 97/1/1
f 103/1/1 101/1/1 102/1/1
f 104/3/2 105/3/2 106/3/2
f 106/3/2 105/3/2 107/3/2
f 106/2/2 107/2/2 108/2/2
f 108/2/2 107/2/2 109/2/2
f 108/3/2 109/3/2 110/3/2
f 110/3/2 109/3/2 111/3/2
f 110/2/2 111/2/2 112/2/2
f 112/2/2 111/2/2 113/2/2
f 112/3/2 113/3/2 114/3/2
f 114/3/2 113/3/2 115/3/2
f 115/3/2 113/3/2 116/3/2
f 116/3/2 113/3/2 117/3/2
f 114/2/2 115/2/2 118/2/2
f 118/2/2 115/2/2 119/2/2
f 119/2/2 115/2/2 120/2/2
f 115/1/2 116/1/2 121/1/2
f 120/2/2 115/2/2 121/2/2
f 116/2/2 117/2/2 122/2/2
f 121/1/2 116/1/2 122/1/2
f 122/2/2 117/2/2 123/2/2
f 123/2/2 117/2/2 124/2/2
f 124/2/2 117/2/2 125/2/2
f 125/2/2 117/2/2 126/2/2
f 114/2/2 118/2/2 127/2/2
f 118/1/2 119/1/2 127/1/2
f 127/1/2 119/1/2 128/1/2
f 120/1/2 121/1/2 129/1/2
f 121/2/2 122/2/2 129/2/2
f 122/2/2 123/2/2 129/2/2
f 129/2/2 123/2/2 130/2/2
f 123/1/2 124/1/2 131/1/2
f 124/2/2 125/2/2 131/2/2
f 131/2/2 125/2/2 132/2/2
f 132/2/2 125/2/2 133/2/2
f 125/1/2 126/1/2 134/1/2
f 133/2/2 125/2/2 134/2/2
f 126/2/2 117/2/2 135/2/2
f 135/2/2 117/2/2 136/2/2
f 119/2/2 120/2/2 137/2/2
f 129/1/2 130/1/2 137/1/2
f 120/1/2 129/1/2 137/1/2
f 137/1/2 130/1/2 138/1/2
f 130/2/2 123/2/2 139/2/2
f 123/1/2 131/1/2 139/1/2
f 131/1/2 132/1/2 139/1/2
f 139/1/2 132/1/2 140/1/2
f 132/2/2 133/2/2 141/2/2
f 133/1/2 134/1/2 142/1/2
f 141/2/2 133/2/2 142/2/2
f 134/1/2 126/1/2 143/1/2
f 142/1/2 134/1/2 143/1/2
f 126/2/2 135/2/2 144/2/2
f 143/1/2 126/1/2 144/1/2
f 127/2/2 128/2/2 145/2/2
f 114/2/2 127/2/2 145/2/2
f 128/1/2 119/1/2 146/1/2
f 145/2/2 128/2/2 146/2/2
f 137/2/2 138/2/2 147/2/2
f 138/1/2 130/1/2 148/1/2
f 147/2/2 138/2/2 148/2/2
f 130/2/2 139/2/2 149/2/2
f 148/1/2 130/1/2 149/1/2
f 139/2/2 140/2/2 149/2/2
f 149/2/2 140/2/2 150/2/2
f 132/2/2 141/2/2 151/2/2
f 141/1/2 142/1/2 152/1/2
f 151/2/2 141/2/2 152/2/2
f 142/1/2 143/1/2 152/1/2
f 152/1/2 143/1/2 153/1/2
f 143/2/2 144/2/2 154/2/2
f 153/1/2 143/1/2 154/1/2
f 114/2/2 145/2/2 155/2/2
f 145/1/2 146/1/2 156/1/2
f 155/2/2 145/2/2 156/2/2
f 137/2/2 147/2/2 157/2/2
f 156/1/2 146/1/2 157/1/2
f 146/1/2 119/1/2 157/1/2
f 119/2/2 137/2/2 157/2/2
f 149/1/2 150/1/2 158/1/2
f 157/2/2 147/2/2 158/2/2
f 147/1/2 148/1/2 158/1/2
f 148/1/2 149/1/2 158/1/2
f 150/2/2 140/2/2 159/2/2
f 158/1/2 150/1/2 159/1/2
f 140/1/2 132/1/2 160/1/2
f 159/2/2 140/2/2 160/2/2
f 132/2/2 151/2/2 161/2/2
f 160/1/2 132/1/2 161/1/2
f 152/1/2 153/1/2 162/1/2
f 161/2/2 151/2/2 162/2/2
f 151/1/2 152/1/2 162/1/2
f 153/2/2 154/2/2 163/2/2
f 162/1/2 153/1/2 163/1/2
f 154/2/2 144/2/2 164/2/2
f 163/2/2 154/2/2 164/2/2
f 144/2/2 135/2/2 164/2/2
f 135/1/2 136/1/2 164/1/2
f 136/2/2 117/2/2 165/2/2
f 164/1/2 136/1/2 165/1/2
f 165/2/2 117/2/2 166/2/2
f 163/1/2 164/1/2 167/1/2
f 162/1/2 163/1/2 167/1/2
f 165/1/2 166/1/2 167/1/2
f 164/1/2 165/1/2 167/1/2
f 161/1/2 162/1/2 167/1/2
f 156/1/2 157/1/2 167/1/2
f 159/1/2 160/1/2 167/1/2
f 155/1/2 156/1/2 167/1/2
f 160/1/2 161/1/2 167/1/2
f 157/1/2 158/1/2 167/1/2
f 158/1/2 159/1/2 167/1/2
f 167/1/2 166/1/2 168/1/2
f 177/2/3 175/2/3 174/2/3
f 178/1/3 176/1/3 175/1/3
f 178/2/3 175/2/3 177/2/3
f 179/2/3 177/2/3 174/2/3
f 179/1/3 178/1/3 177/1/3
f 180/1/3 178/1/3 179/1/3
f 181/2/3 180/2/3 179/2/3
f 182/1/3 178/1/3 180/1/3
f 182/2/3 180/2/3 181/2/3
f 183/1/3 178/1/3 182/1/3
f 184/2/3 179/2/3 174/2/3
f 184/2/3 181/2/3 179/2/3
f 185/1/3 182/1/3 181/1/3
f 185/2/3 181/2/3 184/2/3
f 186/2/3 183/2/3 182/2/3
f 186/1/3 182/1/3 185/1/3
f 187/1/3 178/1/3 183/1/3
f 187/2/3 183/2/3 186/2/3
f 188/1/3 176/1/3 178/1/3
f 188/1/3 178/1/3 187/1/3
f 189/1/3 185/1/3 184/1/3
f 189/2/3 184/2/3 174/2/3
f 190/2/3 187/2/3 186/2/3
f 190/1/3 185/1/3 189/1/3
f 190/2/3 186/2/3 185/2/3
f 190/2/3 188/2/3 187/2/3
f 191/2/3 189/2/3 174/2/3
f 191/2/3 190/2/3 189/2/3
f 192/2/3 188/2/3 190/2/3
f 192/2/3 190/2/3 191/2/3
f 193/2/3 191/2/3 174/2/3
f 193/1/3 192/1/3 191/1/3
f 194/1/3 192/1/3 193/1/3
f 195/2/3 188/2/3 192/2/3
f 195/1/3 192/1/3 194/1/3
f 196/2/3 188/2/3 195/2/3
f 197/2/3 194/2/3 193/2/3
f 197/1/3 195/1/3 194/1/3
f 197/1/3 196/1/3 195/1/3
f 198/1/3 196/1/3 197/1/3
f 199/2/3 188/2/3 196/2/3
f 199/1/3 196/1/3 198/1/3
f 200/1/3 176/1/3 188/1/3
f 200/2/3 188/2/3 199/2/3
f 201/2/3 198/2/3 197/2/3
f 201/2/3 193/2/3 174/2/3
f 201/2/3 197/2/3 193/2/3
f 202/1/3 199/1/3 198/1/3
f 202/2/3 198/2/3 201/2/3
f 202/1/3 200/1/3 199/1/3
f 203/1/3 176/1/3 200/1/3
f 203/1/3 200/1/3 202/1/3
f 204/3/3 174/3/3 173/3/3
f 204/2/3 201/2/3 174/2/3
f 205/1/3 202/1/3 201/1/3
f 205/2/3 201/2/3 204/2/3
f 206/1/3 202/1/3 205/1/3
f 207/2/3 203/2/3 202/2/3
f 207/1/3 202/1/3 206/1/3
f 208/3/3 204/3/3 173/3/3
f 208/1/3 206/1/3 205/1/3
f 208/1/3 205/1/3 204/1/3
f 209/2/3 207/2/3 206/2/3
f 209/1/3 206/1/3 208/1/3
f 210/2/3 209/2/3 208/2/3
f 211/2/3 203/2/3 207/2/3
f 211/2/3 209/2/3 210/2/3
f 211/2/3 207/2/3 209/2/3
f 212/2/3 210/2/3 208/2/3
f 212/1/3 211/1/3 210/1/3
f 213/1/3 211/1/3 212/1/3
f 214/2/3 203/2/3 211/2/3
f 214/1/3 211/1/3 213/1/3
f 215/1/3 176/1/3 203/1/3
f 215/2/3 203/2/3 214/2/3
f 216/1/3 214/1/3 213/1/3
f 216/2/3 213/2/3 212/2/3
f 216/1/3 215/1/3 214/1/3
f 217/1/3 176/1/3 215/1/3
f 217/1/3 215/1/3 216/1/3
f 218/2/3 217/2/3 216/2/3
f 219/1/3 176/1/3 217/1/3
f 219/2/3 217/2/3 218/2/3
f 220/2/3 216/2/3 212/2/3
f 220/2/3 218/2/3 216/2/3
f 221/1/3 219/1/3 218/1/3
f 221/2/3 218/2/3 220/2/3
f 222/1/3 176/1/3 219/1/3
f 222/1/3 219/1/3 221/1/3
f 223/2/3 220/2/3 212/2/3
f 224/1/3 221/1/3 220/1/3
f 224/2/3 220/2/3 223/2/3
f 225/2/3 223/2/3 212/2/3
f 225/2/3 212/2/3 208/2/3
f 226/1/3 224/1/3 223/1/3
f 226/2/3 223/2/3 225/2/3
f 227/1/3 221/1/3 224/1/3
f 227/1/3 224/1/3 226/1/3
f 228/2/3 222/2/3 221/2/3
f 228/1/3 221/1/3 227/1/3
f 229/1/3 226/1/3 225/1/3
f 229/2/3 225/2/3 208/2/3
f 229/1/3 227/1/3 226/1/3
f 230/2/3 228/2/3 227/2/3
f 230/1/3 227/1/3 229/1/3
f 231/2/3 229/2/3 208/2/3
f 231/2/3 230/2/3 229/2/3
f 232/2/3 230/2/3 231/2/3
f 233/2/3 231/2/3 208/2/3
f 233/1/3 232/1/3 231/1/3
f 234/2/3 230/2/3 232/2/3
f 234/1/3 232/1/3 233/1/3
f 235/2/3 222/2/3 228/2/3
f 235/2/3 230/2/3 234/2/3
f 235/2/3 228/2/3 230/2/3
f 235/1/3 176/1/3 222/1/3
f 236/2/3 234/2/3 233/2/3
f 236/1/3 235/1/3 234/1/3
f 237/1/3 235/1/3 236/1/3
f 238/2/3 237/2/3 236/2/3
f 238/1/3 235/1/3 237/1/3
f 239/1/3 176/1/3 235/1/3
f 239/1/3 235/1/3 238/1/3
f 240/3/3 170/3/3 169/3/3
f 241/2/3 171/2/3 170/2/3
f 241/3/3 170/3/3 240/3/3
f 242/3/3 172/3/3 171/3/3
f 242/2/3 171/2/3 241/2/3
f 243/2/3 173/2/3 172/2/3
f 243/3/3 172/3/3 242/3/3
f 244/3/3 208/3/3 173/3/3
f 244/2/3 173/2/3 243/2/3
f 245/2/3 238/2/3 236/2/3
f 245/3/3 208/3/3 244/3/3
f 245/2/3 233/2/3 208/2/3
f 245/2/3 239/2/3 238/2/3
f 245/2/3 236/2/3 233/2/3
f 246/1/3 176/1/3 239/1/3
f 246/2/3 239/2/3 245/2/3
f 247/1/3 176/1/3 246/1/3
f 253/2/4 254/2/4 256/2/4
f 256/2/4 254/2/4 257/2/4
f 257/2/4 254/2/4 258/2/4
f 254/1/4 255/1/4 259/1/4
f 258/2/4 254/2/4 259/2/4
f 257/2/4 258/2/4 260/2/4
f 258/1/4 259/1/4 261/1/4
f 260/2/4 258/2/4 261/2/4
f 256/1/4 257/1/4 262/1/4
f 257/2/4 260/2/4 262/2/4
f 260/1/4 261/1/4 263/1/4
f 262/2/4 260/2/4 263/2/4
f 261/1/4 259/1/4 264/1/4
f 263/1/4 261/1/4 264/1/4
f 259/1/4 255/1/4 265/1/4
f 264/1/4 259/1/4 265/1/4
f 263/1/4 264/1/4 266/1/4
f 253/2/4 256/2/4 266/2/4
f 262/1/4 263/1/4 266/1/4
f 256/1/4 262/1/4 266/1/4
f 264/2/4 265/2/4 267/2/4
f 266/1/4 264/1/4 267/1/4
f 266/2/4 267/2/4 268/2/4
f 268/2/4 267/2/4 269/2/4
f 268/1/4 269/1/4 270/1/4
f 269/2/4 267/2/4 270/2/4
f 267/2/4 265/2/4 271/2/4
f 270/2/4 267/2/4 271/2/4
f 268/1/4 270/1/4 272/1/4
f 266/2/4 268/2/4 272/2/4
f 270/1/4 271/1/4 272/1/4
f 272/1/4 271/1/4 273/1/4
f 266/2/4 272/2/4 274/2/4
f 272/2/4 273/2/4 274/2/4
f 273/1/4 271/1/4 275/1/4
f 274/2/4 273/2/4 275/2/4
f 271/2/4 265/2/4 276/2/4
f 275/1/4 271/1/4 276/1/4
f 265/1/4 255/1/4 277/1/4
f 276/2/4 265/2/4 277/2/4
f 253/2/4 266/2/4 278/2/4
f 266/2/4 274/2/4 278/2/4
f 274/1/4 275/1/4 279/1/4
f 278/2/4 274/2/4 279/2/4
f 275/2/4 276/2/4 280/2/4
f 279/1/4 275/1/4 280/1/4
f 278/1/4 279/1/4 281/1/4
f 253/2/4 278/2/4 281/2/4
f 279/2/4 280/2/4 282/2/4
f 281/1/4 279/1/4 282/1/4
f 280/2/4 276/2/4 283/2/4
f 282/2/4 280/2/4 283/2/4
f 276/1/4 277/1/4 283/1/4
f 277/1/4 255/1/4 284/1/4
f 283/1/4 277/1/4 284/1/4
f 281/2/4 282/2/4 285/2/4
f 282/2/4 283/2/4 285/2/4
f 283/2/4 284/2/4 285/2/4
f 285/2/4 284/2/4 286/2/4
f 285/1/4 286/1/4 287/1/4
f 286/2/4 284/2/4 287/2/4
f 287/2/4 284/2/4 288/2/4
f 281/2/4 285/2/4 289/2/4
f 285/1/4 287/1/4 289/1/4
f 287/1/4 288/1/4 289/1/4
f 289/1/4 288/1/4 290/1/4
f 281/2/4 289/2/4 291/2/4
f 289/2/4 290/2/4 291/2/4
f 290/1/4 288/1/4 292/1/4
f 291/2/4 290/2/4 292/2/4
f 288/2/4 284/2/4 293/2/4
f 292/1/4 288/1/4 293/1/4
f 284/1/4 255/1/4 294/1/4
f 293/2/4 284/2/4 294/2/4
f 292/1/4 293/1/4 295/1/4
f 291/1/4 292/1/4 295/1/4
f 293/1/4 294/1/4 295/1/4
f 295/1/4 294/1/4 296/1/4
f 253/2/4 281/2/4 297/2/4
f 281/2/4 291/2/4 297/2/4
f 291/1/4 295/1/4 298/1/4
f 297/2/4 291/2/4 298/2/4
f 296/1/4 294/1/4 299/1/4
f 295/2/4 296/2/4 299/2/4
f 294/1/4 255/1/4 300/1/4
f 299/1/4 294/1/4 300/1/4
f 297/1/4 298/1/4 301/1/4
f 253/2/4 297/2/4 301/2/4
f 295/2/4 299/2/4 302/2/4
f 301/1/4 298/1/4 302/1/4
f 298/1/4 295/1/4 302/1/4
f 299/2/4 300/2/4 302/2/4
f 253/2/4 301/2/4 303/2/4
f 301/2/4 302/2/4 303/2/4
f 302/2/4 300/2/4 304/2/4
f 303/2/4 302/2/4 304/2/4
f 300/1/4 255/1/4 304/1/4
f 253/2/4 303/2/4 305/2/4
f 303/1/4 304/1/4 305/1/4
f 305/1/4 304/1/4 306/1/4
f 306/1/4 304/1/4 307/1/4
f 304/1/4 255/1/4 308/1/4
f 307/1/4 304/1/4 308/1/4
f 253/2/4 305/2/4 309/2/4
f 305/2/4 306/2/4 309/2/4
f 306/1/4 307/1/4 310/1/4
f 309/2/4 306/2/4 310/2/4
f 310/1/4 307/1/4 311/1/4
f 307/2/4 308/2/4 312/2/4
f 311/1/4 307/1/4 312/1/4
f 253/2/4 309/2/4 313/2/4
f 310/1/4 311/1/4 313/1/4
f 309/1/4 310/1/4 313/1/4
f 311/2/4 312/2/4 314/2/4
f 313/1/4 311/1/4 314/1/4
f 252/3/4 253/3/4 315/3/4
f 253/2/4 313/2/4 315/2/4
f 313/2/4 314/2/4 315/2/4
f 315/2/4 314/2/4 316/2/4
f 315/1/4 316/1/4 317/1/4
f 316/2/4 314/2/4 317/2/4
f 317/2/4 314/2/4 318/2/4
f 252/3/4 315/3/4 319/3/4
f 315/1/4 317/1/4 319/1/4
f 317/1/4 318/1/4 319/1/4
f 319/1/4 318/1/4 320/1/4
f 314/2/4 312/2/4 321/2/4
f 312/2/4 308/2/4 321/2/4
f 318/2/4 314/2/4 321/2/4
f 308/1/4 255/1/4 322/1/4
f 321/2/4 308/2/4 322/2/4
f 320/1/4 318/1/4 323/1/4
f 319/2/4 320/2/4 323/2/4
f 318/2/4 321/2/4 324/2/4
f 323/1/4 318/1/4 324/1/4
f 321/1/4 322/1/4 325/1/4
f 324/2/4 321/2/4 325/2/4
f 323/2/4 324/2/4 326/2/4
f 324/1/4 325/1/4 326/1/4
f 326/1/4 325/1/4 327/1/4
f 325/1/4 322/1/4 328/1/4
f 327/1/4 325/1/4 328/1/4
f 322/1/4 255/1/4 329/1/4
f 328/1/4 322/1/4 329/1/4
f 326/2/4 327/2/4 330/2/4
f 319/2/4 323/2/4 330/2/4
f 323/2/4 326/2/4 330/2/4
f 327/1/4 328/1/4 331/1/4
f 330/2/4 327/2/4 331/2/4
f 319/2/4 330/2/4 332/2/4
f 252/3/4 319/3/4 332/3/4
f 330/1/4 331/1/4 333/1/4
f 332/2/4 330/2/4 333/2/4
f 333/1/4 331/1/4 334/1/4
f 331/1/4 328/1/4 335/1/4
f 334/1/4 331/1/4 335/1/4
f 328/2/4 329/2/4 335/2/4
f 333/1/4 334/1/4 336/1/4
f 332/1/4 333/1/4 336/1/4
f 252/3/4 332/3/4 336/3/4
f 334/2/4 335/2/4 337/2/4
f 336/1/4 334/1/4 337/1/4
f 248/3/4 249/3/4 338/3/4
f 249/2/4 250/2/4 339/2/4
f 338/3/4 249/3/4 339/3/4
f 250/3/4 251/3/4 340/3/4
f 339/2/4 250/2/4 340/2/4
f 251/2/4 252/2/4 341/2/4
f 340/3/4 251/3/4 341/3/4
f 252/3/4 336/3/4 342/3/4
f 341/2/4 252/2/4 342/2/4
f 336/2/4 337/2/4 343/2/4
f 342/3/4 336/3/4 343/3/4
f 337/2/4 335/2/4 344/2/4
f 343/2/4 337/2/4 344/2/4
f 335/2/4 329/2/4 344/2/4
f 329/1/4 255/1/4 344/1/4
f 344/1/4 255/1/4 345/1/4
f 348/3/5 347/3/5 346/3/5
f 349/3/5 347/3/5 348/3/5
f 350/1/6 351/1/6 352/1/6
f 352/1/6 351/1/6 353/1/6
