# MagicaVoxel @ Ephtracy

# group
o 

# material
mtllib gafas.mtl
usemtl palette

# normals
vn -1 0 0
vn 1 0 0
vn 0 0 1
vn 0 0 -1
vn 0 -1 0
vn 0 1 0

# texcoords
vt 0.271484 0.5
vt 0.275391 0.5
vt 0.298828 0.5
vt 0.302734 0.5
vt 0.306641 0.5

# verts
v 0 2.2 -0.3
v 0 2.2 -1.8
v 0 2.3 -0.3
v 0 2.3 -1.8
v 0 2.4 -0.3
v 0 2.4 -1.8
v 0.2 2.2 -0.1
v 0.2 2.2 -0.3
v 0.2 2.3 -0.3
v 0.2 2.4 -0.1
v 0.2 2.4 -0.3
v 0.3 2 -0.1
v 0.3 2 -0.4
v 0.3 2.2 -0.1
v 0.3 2.2 -0.4
v 0.3 2.4 -0.1
v 0.3 2.4 -0.4
v 0.3 2.6 -0.1
v 0.3 2.6 -0.4
v 0.6 2.1 -0.1
v 0.6 2.1 -0.2
v 0.6 2.1 -0.3
v 0.6 2.1 -0.4
v 0.6 2.2 -0.1
v 0.6 2.2 -0.2
v 0.6 2.2 -0.3
v 0.6 2.2 -0.4
v 0.6 2.4 -0.1
v 0.6 2.4 -0.2
v 0.6 2.4 -0.3
v 0.6 2.4 -0.4
v 0.6 2.5 -0.1
v 0.6 2.5 -0.2
v 0.6 2.5 -0.3
v 0.6 2.5 -0.4
v 0.7 2.2 -0.1
v 0.7 2.2 -0.2
v 0.7 2.2 -0.3
v 0.7 2.2 -0.4
v 0.7 2.3 -0.2
v 0.7 2.3 -0.3
v 0.7 2.4 -0.1
v 0.7 2.4 -0.2
v 0.7 2.4 -0.3
v 0.7 2.4 -0.4
v 0.8 2.5 -0.2
v 0.8 2.5 -0.3
v 0.8 2.6 -0.2
v 0.8 2.6 -0.3
v 0.9 2.3 0
v 0.9 2.3 -0.1
v 0.9 2.4 0
v 0.9 2.4 -0.1
v 0.9 2.4 -0.2
v 0.9 2.5 -0.1
v 0.9 2.5 -0.2
v 0.9 2.6 -0.2
v 0.9 2.6 -0.3
v 0.9 2.7 -0.2
v 0.9 2.7 -0.3
v 1.2 2.2 -0.1
v 1.2 2.2 -0.4
v 1.2 2.3 -0.1
v 1.2 2.3 -0.3
v 1.2 2.4 -0.3
v 1.2 2.4 -0.4
v 1.3 2 -0.1
v 1.3 2 -0.4
v 1.3 2.2 -0.1
v 1.3 2.2 -0.4
v 1.3 2.4 -0.1
v 1.3 2.4 -0.2
v 1.3 2.4 -0.3
v 1.3 2.4 -0.4
v 1.3 2.5 -0.2
v 1.3 2.5 -0.3
v 1.3 2.6 -0.1
v 1.3 2.6 -0.4
v 1.6 2.1 -0.1
v 1.6 2.1 -0.2
v 1.6 2.1 -0.3
v 1.6 2.1 -0.4
v 1.6 2.2 -0.1
v 1.6 2.2 -0.2
v 1.6 2.2 -0.3
v 1.6 2.2 -0.4
v 1.6 2.4 -0.1
v 1.6 2.4 -0.2
v 1.6 2.4 -0.3
v 1.6 2.4 -0.4
v 1.6 2.5 -0.1
v 1.6 2.5 -0.2
v 1.6 2.5 -0.3
v 1.6 2.5 -0.4
v 1.7 2.2 -0.1
v 1.7 2.2 -0.2
v 1.7 2.2 -0.3
v 1.7 2.2 -0.4
v 1.7 2.3 -0.2
v 1.7 2.3 -0.3
v 1.7 2.4 -0.1
v 1.7 2.4 -0.2
v 1.7 2.4 -0.3
v 1.7 2.4 -0.4
v 1.9 2.2 -0.4
v 1.9 2.2 -1.7
v 1.9 2.3 -0.4
v 1.9 2.3 -1.7
v 1.9 2.4 -0.4
v 1.9 2.4 -1.7
v 0.1 2.2 -0.4
v 0.1 2.2 -1.7
v 0.1 2.3 -0.4
v 0.1 2.3 -1.7
v 0.1 2.4 -0.4
v 0.1 2.4 -1.7
v 0.3 2.2 -0.1
v 0.3 2.2 -0.2
v 0.3 2.2 -0.3
v 0.3 2.2 -0.4
v 0.3 2.3 -0.2
v 0.3 2.3 -0.3
v 0.3 2.4 -0.1
v 0.3 2.4 -0.2
v 0.3 2.4 -0.3
v 0.3 2.4 -0.4
v 0.4 2.1 -0.1
v 0.4 2.1 -0.2
v 0.4 2.1 -0.3
v 0.4 2.1 -0.4
v 0.4 2.2 -0.1
v 0.4 2.2 -0.2
v 0.4 2.2 -0.3
v 0.4 2.2 -0.4
v 0.4 2.4 -0.1
v 0.4 2.4 -0.2
v 0.4 2.4 -0.3
v 0.4 2.4 -0.4
v 0.4 2.5 -0.1
v 0.4 2.5 -0.2
v 0.4 2.5 -0.3
v 0.4 2.5 -0.4
v 0.7 2 -0.1
v 0.7 2 -0.4
v 0.7 2.2 -0.1
v 0.7 2.2 -0.4
v 0.7 2.4 -0.1
v 0.7 2.4 -0.2
v 0.7 2.4 -0.3
v 0.7 2.4 -0.4
v 0.7 2.5 -0.2
v 0.7 2.5 -0.3
v 0.7 2.6 -0.1
v 0.7 2.6 -0.4
v 0.8 2.2 -0.1
v 0.8 2.2 -0.4
v 0.8 2.3 -0.1
v 0.8 2.3 -0.3
v 0.8 2.4 -0.3
v 0.8 2.4 -0.4
v 1.1 2.3 0
v 1.1 2.3 -0.1
v 1.1 2.4 0
v 1.1 2.4 -0.1
v 1.1 2.4 -0.2
v 1.1 2.5 -0.1
v 1.1 2.5 -0.2
v 1.1 2.6 -0.2
v 1.1 2.6 -0.3
v 1.1 2.7 -0.2
v 1.1 2.7 -0.3
v 1.2 2.5 -0.2
v 1.2 2.5 -0.3
v 1.2 2.6 -0.2
v 1.2 2.6 -0.3
v 1.3 2.2 -0.1
v 1.3 2.2 -0.2
v 1.3 2.2 -0.3
v 1.3 2.2 -0.4
v 1.3 2.3 -0.2
v 1.3 2.3 -0.3
v 1.3 2.4 -0.1
v 1.3 2.4 -0.2
v 1.3 2.4 -0.3
v 1.3 2.4 -0.4
v 1.4 2.1 -0.1
v 1.4 2.1 -0.2
v 1.4 2.1 -0.3
v 1.4 2.1 -0.4
v 1.4 2.2 -0.1
v 1.4 2.2 -0.2
v 1.4 2.2 -0.3
v 1.4 2.2 -0.4
v 1.4 2.4 -0.1
v 1.4 2.4 -0.2
v 1.4 2.4 -0.3
v 1.4 2.4 -0.4
v 1.4 2.5 -0.1
v 1.4 2.5 -0.2
v 1.4 2.5 -0.3
v 1.4 2.5 -0.4
v 1.7 2 -0.1
v 1.7 2 -0.4
v 1.7 2.2 -0.1
v 1.7 2.2 -0.4
v 1.7 2.4 -0.1
v 1.7 2.4 -0.4
v 1.7 2.6 -0.1
v 1.7 2.6 -0.4
v 1.8 2.2 -0.1
v 1.8 2.2 -0.3
v 1.8 2.3 -0.3
v 1.8 2.4 -0.1
v 1.8 2.4 -0.3
v 2 2.2 -0.3
v 2 2.2 -1.8
v 2 2.3 -0.3
v 2 2.3 -1.8
v 2 2.4 -0.3
v 2 2.4 -1.8
v 0.9 2.3 0
v 0.9 2.4 0
v 1.1 2.3 0
v 1.1 2.4 0
v 0.2 2.2 -0.1
v 0.2 2.4 -0.1
v 0.3 2 -0.1
v 0.3 2.2 -0.1
v 0.3 2.4 -0.1
v 0.3 2.6 -0.1
v 0.4 2.1 -0.1
v 0.4 2.2 -0.1
v 0.4 2.4 -0.1
v 0.4 2.5 -0.1
v 0.6 2.1 -0.1
v 0.6 2.2 -0.1
v 0.6 2.4 -0.1
v 0.6 2.5 -0.1
v 0.7 2 -0.1
v 0.7 2.2 -0.1
v 0.7 2.4 -0.1
v 0.7 2.6 -0.1
v 0.8 2.2 -0.1
v 0.8 2.3 -0.1
v 0.8 2.4 -0.1
v 0.9 2.3 -0.1
v 0.9 2.4 -0.1
v 0.9 2.5 -0.1
v 1.1 2.3 -0.1
v 1.1 2.4 -0.1
v 1.1 2.5 -0.1
v 1.2 2.2 -0.1
v 1.2 2.3 -0.1
v 1.2 2.4 -0.1
v 1.3 2 -0.1
v 1.3 2.2 -0.1
v 1.3 2.4 -0.1
v 1.3 2.6 -0.1
v 1.4 2.1 -0.1
v 1.4 2.2 -0.1
v 1.4 2.4 -0.1
v 1.4 2.5 -0.1
v 1.6 2.1 -0.1
v 1.6 2.2 -0.1
v 1.6 2.4 -0.1
v 1.6 2.5 -0.1
v 1.7 2 -0.1
v 1.7 2.2 -0.1
v 1.7 2.4 -0.1
v 1.7 2.6 -0.1
v 1.8 2.2 -0.1
v 1.8 2.4 -0.1
v 0.3 2.2 -0.2
v 0.3 2.3 -0.2
v 0.3 2.4 -0.2
v 0.4 2.1 -0.2
v 0.4 2.2 -0.2
v 0.4 2.3 -0.2
v 0.4 2.4 -0.2
v 0.4 2.5 -0.2
v 0.5 2.1 -0.2
v 0.5 2.2 -0.2
v 0.5 2.3 -0.2
v 0.5 2.4 -0.2
v 0.5 2.5 -0.2
v 0.6 2.1 -0.2
v 0.6 2.2 -0.2
v 0.6 2.3 -0.2
v 0.6 2.4 -0.2
v 0.6 2.5 -0.2
v 0.7 2.2 -0.2
v 0.7 2.3 -0.2
v 0.7 2.4 -0.2
v 0.7 2.5 -0.2
v 0.8 2.4 -0.2
v 0.8 2.5 -0.2
v 0.8 2.6 -0.2
v 0.9 2.4 -0.2
v 0.9 2.5 -0.2
v 0.9 2.6 -0.2
v 0.9 2.7 -0.2
v 1.1 2.4 -0.2
v 1.1 2.5 -0.2
v 1.1 2.6 -0.2
v 1.1 2.7 -0.2
v 1.2 2.4 -0.2
v 1.2 2.5 -0.2
v 1.2 2.6 -0.2
v 1.3 2.2 -0.2
v 1.3 2.3 -0.2
v 1.3 2.4 -0.2
v 1.3 2.5 -0.2
v 1.4 2.1 -0.2
v 1.4 2.2 -0.2
v 1.4 2.3 -0.2
v 1.4 2.4 -0.2
v 1.4 2.5 -0.2
v 1.5 2.1 -0.2
v 1.5 2.2 -0.2
v 1.5 2.3 -0.2
v 1.5 2.4 -0.2
v 1.5 2.5 -0.2
v 1.6 2.1 -0.2
v 1.6 2.2 -0.2
v 1.6 2.3 -0.2
v 1.6 2.4 -0.2
v 1.6 2.5 -0.2
v 1.7 2.2 -0.2
v 1.7 2.3 -0.2
v 1.7 2.4 -0.2
v 0 2.2 -0.3
v 0 2.3 -0.3
v 0 2.4 -0.3
v 0.2 2.2 -0.3
v 0.2 2.3 -0.3
v 0.2 2.4 -0.3
v 1.8 2.2 -0.3
v 1.8 2.3 -0.3
v 1.8 2.4 -0.3
v 2 2.2 -0.3
v 2 2.3 -0.3
v 2 2.4 -0.3
v 0.1 2.2 -1.7
v 0.1 2.3 -1.7
v 0.1 2.4 -1.7
v 1.9 2.2 -1.7
v 1.9 2.3 -1.7
v 1.9 2.4 -1.7
v 0.3 2.2 -0.3
v 0.3 2.3 -0.3
v 0.3 2.4 -0.3
v 0.4 2.1 -0.3
v 0.4 2.2 -0.3
v 0.4 2.3 -0.3
v 0.4 2.4 -0.3
v 0.4 2.5 -0.3
v 0.5 2.1 -0.3
v 0.5 2.2 -0.3
v 0.5 2.3 -0.3
v 0.5 2.4 -0.3
v 0.5 2.5 -0.3
v 0.6 2.1 -0.3
v 0.6 2.2 -0.3
v 0.6 2.3 -0.3
v 0.6 2.4 -0.3
v 0.6 2.5 -0.3
v 0.7 2.2 -0.3
v 0.7 2.3 -0.3
v 0.7 2.4 -0.3
v 0.7 2.5 -0.3
v 0.8 2.3 -0.3
v 0.8 2.4 -0.3
v 0.8 2.5 -0.3
v 0.8 2.6 -0.3
v 0.9 2.5 -0.3
v 0.9 2.6 -0.3
v 0.9 2.7 -0.3
v 1.1 2.5 -0.3
v 1.1 2.6 -0.3
v 1.1 2.7 -0.3
v 1.2 2.3 -0.3
v 1.2 2.4 -0.3
v 1.2 2.5 -0.3
v 1.2 2.6 -0.3
v 1.3 2.2 -0.3
v 1.3 2.3 -0.3
v 1.3 2.4 -0.3
v 1.3 2.5 -0.3
v 1.4 2.1 -0.3
v 1.4 2.2 -0.3
v 1.4 2.3 -0.3
v 1.4 2.4 -0.3
v 1.4 2.5 -0.3
v 1.5 2.1 -0.3
v 1.5 2.2 -0.3
v 1.5 2.3 -0.3
v 1.5 2.4 -0.3
v 1.5 2.5 -0.3
v 1.6 2.1 -0.3
v 1.6 2.2 -0.3
v 1.6 2.3 -0.3
v 1.6 2.4 -0.3
v 1.6 2.5 -0.3
v 1.7 2.2 -0.3
v 1.7 2.3 -0.3
v 1.7 2.4 -0.3
v 0.1 2.2 -0.4
v 0.1 2.3 -0.4
v 0.1 2.4 -0.4
v 0.2 2.2 -0.4
v 0.2 2.3 -0.4
v 0.2 2.4 -0.4
v 0.3 2 -0.4
v 0.3 2.2 -0.4
v 0.3 2.4 -0.4
v 0.3 2.6 -0.4
v 0.4 2.1 -0.4
v 0.4 2.2 -0.4
v 0.4 2.4 -0.4
v 0.4 2.5 -0.4
v 0.6 2.1 -0.4
v 0.6 2.2 -0.4
v 0.6 2.4 -0.4
v 0.6 2.5 -0.4
v 0.7 2 -0.4
v 0.7 2.2 -0.4
v 0.7 2.4 -0.4
v 0.7 2.6 -0.4
v 0.8 2.2 -0.4
v 0.8 2.4 -0.4
v 1.2 2.2 -0.4
v 1.2 2.4 -0.4
v 1.3 2 -0.4
v 1.3 2.2 -0.4
v 1.3 2.4 -0.4
v 1.3 2.6 -0.4
v 1.4 2.1 -0.4
v 1.4 2.2 -0.4
v 1.4 2.4 -0.4
v 1.4 2.5 -0.4
v 1.6 2.1 -0.4
v 1.6 2.2 -0.4
v 1.6 2.4 -0.4
v 1.6 2.5 -0.4
v 1.7 2 -0.4
v 1.7 2.2 -0.4
v 1.7 2.4 -0.4
v 1.7 2.6 -0.4
v 1.8 2.2 -0.4
v 1.8 2.3 -0.4
v 1.8 2.4 -0.4
v 1.9 2.2 -0.4
v 1.9 2.3 -0.4
v 1.9 2.4 -0.4
v 0 2.2 -1.8
v 0 2.3 -1.8
v 0 2.4 -1.8
v 2 2.2 -1.8
v 2 2.3 -1.8
v 2 2.4 -1.8
v 0.3 2 -0.1
v 0.7 2 -0.1
v 1.3 2 -0.1
v 1.7 2 -0.1
v 0.3 2 -0.4
v 0.7 2 -0.4
v 1.3 2 -0.4
v 1.7 2 -0.4
v 0.2 2.2 -0.1
v 0.3 2.2 -0.1
v 0.7 2.2 -0.1
v 0.8 2.2 -0.1
v 1.2 2.2 -0.1
v 1.3 2.2 -0.1
v 1.7 2.2 -0.1
v 1.8 2.2 -0.1
v 0 2.2 -0.3
v 0.2 2.2 -0.3
v 1.8 2.2 -0.3
v 2 2.2 -0.3
v 0.1 2.2 -0.4
v 0.2 2.2 -0.4
v 0.3 2.2 -0.4
v 0.7 2.2 -0.4
v 0.8 2.2 -0.4
v 1.2 2.2 -0.4
v 1.3 2.2 -0.4
v 1.7 2.2 -0.4
v 1.8 2.2 -0.4
v 1.9 2.2 -0.4
v 0.1 2.2 -1.7
v 1.9 2.2 -1.7
v 0 2.2 -1.8
v 2 2.2 -1.8
v 0.9 2.3 0
v 1.1 2.3 0
v 0.8 2.3 -0.1
v 0.9 2.3 -0.1
v 1.1 2.3 -0.1
v 1.2 2.3 -0.1
v 0.8 2.3 -0.3
v 1.2 2.3 -0.3
v 0.3 2.4 -0.1
v 0.4 2.4 -0.1
v 0.6 2.4 -0.1
v 0.7 2.4 -0.1
v 1.3 2.4 -0.1
v 1.4 2.4 -0.1
v 1.6 2.4 -0.1
v 1.7 2.4 -0.1
v 0.3 2.4 -0.2
v 0.4 2.4 -0.2
v 0.6 2.4 -0.2
v 0.7 2.4 -0.2
v 1.3 2.4 -0.2
v 1.4 2.4 -0.2
v 1.6 2.4 -0.2
v 1.7 2.4 -0.2
v 0.3 2.4 -0.3
v 0.4 2.4 -0.3
v 0.6 2.4 -0.3
v 0.7 2.4 -0.3
v 1.3 2.4 -0.3
v 1.4 2.4 -0.3
v 1.6 2.4 -0.3
v 1.7 2.4 -0.3
v 0.3 2.4 -0.4
v 0.4 2.4 -0.4
v 0.6 2.4 -0.4
v 0.7 2.4 -0.4
v 1.3 2.4 -0.4
v 1.4 2.4 -0.4
v 1.6 2.4 -0.4
v 1.7 2.4 -0.4
v 0.4 2.5 -0.1
v 0.6 2.5 -0.1
v 1.4 2.5 -0.1
v 1.6 2.5 -0.1
v 0.4 2.5 -0.2
v 0.5 2.5 -0.2
v 0.6 2.5 -0.2
v 1.4 2.5 -0.2
v 1.5 2.5 -0.2
v 1.6 2.5 -0.2
v 0.4 2.5 -0.3
v 0.5 2.5 -0.3
v 0.6 2.5 -0.3
v 1.4 2.5 -0.3
v 1.5 2.5 -0.3
v 1.6 2.5 -0.3
v 0.4 2.5 -0.4
v 0.6 2.5 -0.4
v 1.4 2.5 -0.4
v 1.6 2.5 -0.4
v 0.4 2.1 -0.1
v 0.6 2.1 -0.1
v 1.4 2.1 -0.1
v 1.6 2.1 -0.1
v 0.4 2.1 -0.2
v 0.5 2.1 -0.2
v 0.6 2.1 -0.2
v 1.4 2.1 -0.2
v 1.5 2.1 -0.2
v 1.6 2.1 -0.2
v 0.4 2.1 -0.3
v 0.5 2.1 -0.3
v 0.6 2.1 -0.3
v 1.4 2.1 -0.3
v 1.5 2.1 -0.3
v 1.6 2.1 -0.3
v 0.4 2.1 -0.4
v 0.6 2.1 -0.4
v 1.4 2.1 -0.4
v 1.6 2.1 -0.4
v 0.3 2.2 -0.1
v 0.4 2.2 -0.1
v 0.6 2.2 -0.1
v 0.7 2.2 -0.1
v 1.3 2.2 -0.1
v 1.4 2.2 -0.1
v 1.6 2.2 -0.1
v 1.7 2.2 -0.1
v 0.3 2.2 -0.2
v 0.4 2.2 -0.2
v 0.6 2.2 -0.2
v 0.7 2.2 -0.2
v 1.3 2.2 -0.2
v 1.4 2.2 -0.2
v 1.6 2.2 -0.2
v 1.7 2.2 -0.2
v 0.3 2.2 -0.3
v 0.4 2.2 -0.3
v 0.6 2.2 -0.3
v 0.7 2.2 -0.3
v 1.3 2.2 -0.3
v 1.4 2.2 -0.3
v 1.6 2.2 -0.3
v 1.7 2.2 -0.3
v 0.3 2.2 -0.4
v 0.4 2.2 -0.4
v 0.6 2.2 -0.4
v 0.7 2.2 -0.4
v 1.3 2.2 -0.4
v 1.4 2.2 -0.4
v 1.6 2.2 -0.4
v 1.7 2.2 -0.4
v 0.9 2.4 0
v 1.1 2.4 0
v 0.2 2.4 -0.1
v 0.3 2.4 -0.1
v 0.7 2.4 -0.1
v 0.8 2.4 -0.1
v 0.9 2.4 -0.1
v 1.1 2.4 -0.1
v 1.2 2.4 -0.1
v 1.3 2.4 -0.1
v 1.7 2.4 -0.1
v 1.8 2.4 -0.1
v 0.7 2.4 -0.2
v 0.8 2.4 -0.2
v 0.9 2.4 -0.2
v 1.1 2.4 -0.2
v 1.2 2.4 -0.2
v 1.3 2.4 -0.2
v 0 2.4 -0.3
v 0.2 2.4 -0.3
v 0.7 2.4 -0.3
v 0.8 2.4 -0.3
v 1.2 2.4 -0.3
v 1.3 2.4 -0.3
v 1.8 2.4 -0.3
v 2 2.4 -0.3
v 0.1 2.4 -0.4
v 0.2 2.4 -0.4
v 0.3 2.4 -0.4
v 0.7 2.4 -0.4
v 0.8 2.4 -0.4
v 1.2 2.4 -0.4
v 1.3 2.4 -0.4
v 1.7 2.4 -0.4
v 1.8 2.4 -0.4
v 1.9 2.4 -0.4
v 0.1 2.4 -1.7
v 1.9 2.4 -1.7
v 0 2.4 -1.8
v 2 2.4 -1.8
v 0.9 2.5 -0.1
v 1.1 2.5 -0.1
v 0.7 2.5 -0.2
v 0.8 2.5 -0.2
v 0.9 2.5 -0.2
v 1.1 2.5 -0.2
v 1.2 2.5 -0.2
v 1.3 2.5 -0.2
v 0.7 2.5 -0.3
v 0.8 2.5 -0.3
v 1.2 2.5 -0.3
v 1.3 2.5 -0.3
v 0.3 2.6 -0.1
v 0.7 2.6 -0.1
v 1.3 2.6 -0.1
v 1.7 2.6 -0.1
v 0.8 2.6 -0.2
v 0.9 2.6 -0.2
v 1.1 2.6 -0.2
v 1.2 2.6 -0.2
v 0.8 2.6 -0.3
v 0.9 2.6 -0.3
v 1.1 2.6 -0.3
v 1.2 2.6 -0.3
v 0.3 2.6 -0.4
v 0.7 2.6 -0.4
v 1.3 2.6 -0.4
v 1.7 2.6 -0.4
v 0.9 2.7 -0.2
v 1.1 2.7 -0.2
v 0.9 2.7 -0.3
v 1.1 2.7 -0.3

# faces
f 3/2/1 2/2/1 1/2/1
f 4/2/1 2/2/1 3/2/1
f 5/1/1 4/1/1 3/1/1
f 6/1/1 4/1/1 5/1/1
f 9/5/1 8/5/1 7/5/1
f 10/5/1 9/5/1 7/5/1
f 11/5/1 9/5/1 10/5/1
f 14/5/1 13/5/1 12/5/1
f 15/5/1 13/5/1 14/5/1
f 18/5/1 17/5/1 16/5/1
f 19/5/1 17/5/1 18/5/1
f 24/5/1 21/5/1 20/5/1
f 25/5/1 21/5/1 24/5/1
f 26/5/1 23/5/1 22/5/1
f 27/5/1 23/5/1 26/5/1
f 32/5/1 29/5/1 28/5/1
f 33/5/1 29/5/1 32/5/1
f 34/5/1 31/5/1 30/5/1
f 35/5/1 31/5/1 34/5/1
f 40/5/1 37/5/1 36/5/1
f 41/5/1 39/5/1 38/5/1
f 42/5/1 40/5/1 36/5/1
f 43/5/1 40/5/1 42/5/1
f 44/5/1 39/5/1 41/5/1
f 45/5/1 39/5/1 44/5/1
f 48/1/1 47/1/1 46/1/1
f 49/1/1 47/1/1 48/1/1
f 52/2/1 51/2/1 50/2/1
f 53/2/1 51/2/1 52/2/1
f 55/2/1 54/2/1 53/2/1
f 56/2/1 54/2/1 55/2/1
f 59/1/1 58/1/1 57/1/1
f 60/1/1 58/1/1 59/1/1
f 63/5/1 62/5/1 61/5/1
f 64/5/1 62/5/1 63/5/1
f 65/5/1 62/5/1 64/5/1
f 66/5/1 62/5/1 65/5/1
f 69/5/1 68/5/1 67/5/1
f 70/5/1 68/5/1 69/5/1
f 75/5/1 72/5/1 71/5/1
f 76/5/1 74/5/1 73/5/1
f 77/5/1 75/5/1 71/5/1
f 77/5/1 76/5/1 75/5/1
f 78/5/1 74/5/1 76/5/1
f 78/5/1 76/5/1 77/5/1
f 83/5/1 80/5/1 79/5/1
f 84/5/1 80/5/1 83/5/1
f 85/5/1 82/5/1 81/5/1
f 86/5/1 82/5/1 85/5/1
f 91/5/1 88/5/1 87/5/1
f 92/5/1 88/5/1 91/5/1
f 93/5/1 90/5/1 89/5/1
f 94/5/1 90/5/1 93/5/1
f 99/5/1 96/5/1 95/5/1
f 100/5/1 98/5/1 97/5/1
f 101/5/1 99/5/1 95/5/1
f 102/5/1 99/5/1 101/5/1
f 103/5/1 98/5/1 100/5/1
f 104/5/1 98/5/1 103/5/1
f 107/2/1 106/2/1 105/2/1
f 108/2/1 106/2/1 107/2/1
f 109/1/1 108/1/1 107/1/1
f 110/1/1 108/1/1 109/1/1
f 111/2/2 112/2/2 113/2/2
f 113/2/2 112/2/2 114/2/2
f 113/1/2 114/1/2 115/1/2
f 115/1/2 114/1/2 116/1/2
f 117/5/2 118/5/2 121/5/2
f 119/5/2 120/5/2 122/5/2
f 117/5/2 121/5/2 123/5/2
f 123/5/2 121/5/2 124/5/2
f 122/5/2 120/5/2 125/5/2
f 125/5/2 120/5/2 126/5/2
f 127/5/2 128/5/2 131/5/2
f 131/5/2 128/5/2 132/5/2
f 129/5/2 130/5/2 133/5/2
f 133/5/2 130/5/2 134/5/2
f 135/5/2 136/5/2 139/5/2
f 139/5/2 136/5/2 140/5/2
f 137/5/2 138/5/2 141/5/2
f 141/5/2 138/5/2 142/5/2
f 143/5/2 144/5/2 145/5/2
f 145/5/2 144/5/2 146/5/2
f 147/5/2 148/5/2 151/5/2
f 149/5/2 150/5/2 152/5/2
f 147/5/2 151/5/2 153/5/2
f 151/5/2 152/5/2 153/5/2
f 152/5/2 150/5/2 154/5/2
f 153/5/2 152/5/2 154/5/2
f 155/5/2 156/5/2 157/5/2
f 157/5/2 156/5/2 158/5/2
f 158/5/2 156/5/2 159/5/2
f 159/5/2 156/5/2 160/5/2
f 161/2/2 162/2/2 163/2/2
f 163/2/2 162/2/2 164/2/2
f 164/2/2 165/2/2 166/2/2
f 166/2/2 165/2/2 167/2/2
f 168/1/2 169/1/2 170/1/2
f 170/1/2 169/1/2 171/1/2
f 172/1/2 173/1/2 174/1/2
f 174/1/2 173/1/2 175/1/2
f 176/5/2 177/5/2 180/5/2
f 178/5/2 179/5/2 181/5/2
f 176/5/2 180/5/2 182/5/2
f 182/5/2 180/5/2 183/5/2
f 181/5/2 179/5/2 184/5/2
f 184/5/2 179/5/2 185/5/2
f 186/5/2 187/5/2 190/5/2
f 190/5/2 187/5/2 191/5/2
f 188/5/2 189/5/2 192/5/2
f 192/5/2 189/5/2 193/5/2
f 194/5/2 195/5/2 198/5/2
f 198/5/2 195/5/2 199/5/2
f 196/5/2 197/5/2 200/5/2
f 200/5/2 197/5/2 201/5/2
f 202/5/2 203/5/2 204/5/2
f 204/5/2 203/5/2 205/5/2
f 206/5/2 207/5/2 208/5/2
f 208/5/2 207/5/2 209/5/2
f 210/5/2 211/5/2 212/5/2
f 210/5/2 212/5/2 213/5/2
f 213/5/2 212/5/2 214/5/2
f 215/2/2 216/2/2 217/2/2
f 217/2/2 216/2/2 218/2/2
f 217/1/2 218/1/2 219/1/2
f 219/1/2 218/1/2 220/1/2
f 223/2/3 222/2/3 221/2/3
f 224/2/3 222/2/3 223/2/3
f 228/5/3 226/5/3 225/5/3
f 229/5/3 226/5/3 228/5/3
f 231/5/3 228/5/3 227/5/3
f 232/5/3 228/5/3 231/5/3
f 233/5/3 230/5/3 229/5/3
f 234/5/3 230/5/3 233/5/3
f 235/5/3 231/5/3 227/5/3
f 238/5/3 230/5/3 234/5/3
f 239/5/3 236/5/3 235/5/3
f 239/5/3 235/5/3 227/5/3
f 240/5/3 236/5/3 239/5/3
f 241/5/3 238/5/3 237/5/3
f 242/5/3 230/5/3 238/5/3
f 242/5/3 238/5/3 241/5/3
f 243/5/3 241/5/3 240/5/3
f 244/5/3 241/5/3 243/5/3
f 245/5/3 241/5/3 244/5/3
f 246/2/3 245/2/3 244/2/3
f 247/2/3 245/2/3 246/2/3
f 250/2/3 248/2/3 247/2/3
f 251/2/3 248/2/3 250/2/3
f 253/2/3 250/2/3 249/2/3
f 254/2/3 250/2/3 253/2/3
f 256/5/3 253/5/3 252/5/3
f 256/5/3 254/5/3 253/5/3
f 257/5/3 254/5/3 256/5/3
f 259/5/3 256/5/3 255/5/3
f 260/5/3 256/5/3 259/5/3
f 261/5/3 258/5/3 257/5/3
f 262/5/3 258/5/3 261/5/3
f 263/5/3 259/5/3 255/5/3
f 266/5/3 258/5/3 262/5/3
f 267/5/3 264/5/3 263/5/3
f 267/5/3 263/5/3 255/5/3
f 268/5/3 264/5/3 267/5/3
f 269/5/3 266/5/3 265/5/3
f 270/5/3 258/5/3 266/5/3
f 270/5/3 266/5/3 269/5/3
f 271/5/3 269/5/3 268/5/3
f 272/5/3 269/5/3 271/5/3
f 277/3/3 274/3/3 273/3/3
f 278/4/3 275/4/3 274/4/3
f 278/3/3 274/3/3 277/3/3
f 279/4/3 275/4/3 278/4/3
f 281/4/3 277/4/3 276/4/3
f 281/4/3 278/4/3 277/4/3
f 282/4/3 278/4/3 281/4/3
f 283/3/3 279/3/3 278/3/3
f 283/4/3 278/4/3 282/4/3
f 284/4/3 280/4/3 279/4/3
f 284/3/3 279/3/3 283/3/3
f 285/4/3 280/4/3 284/4/3
f 286/3/3 282/3/3 281/3/3
f 287/4/3 283/4/3 282/4/3
f 287/3/3 282/3/3 286/3/3
f 287/4/3 284/4/3 283/4/3
f 288/4/3 284/4/3 287/4/3
f 289/3/3 285/3/3 284/3/3
f 289/4/3 284/4/3 288/4/3
f 290/3/3 285/3/3 289/3/3
f 291/3/3 288/3/3 287/3/3
f 292/4/3 289/4/3 288/4/3
f 292/3/3 288/3/3 291/3/3
f 293/4/3 289/4/3 292/4/3
f 295/1/3 294/1/3 293/1/3
f 296/1/3 294/1/3 295/1/3
f 298/2/3 296/2/3 295/2/3
f 299/1/3 297/1/3 296/1/3
f 299/2/3 296/2/3 298/2/3
f 300/1/3 297/1/3 299/1/3
f 303/2/3 300/2/3 299/2/3
f 304/1/3 301/1/3 300/1/3
f 304/2/3 300/2/3 303/2/3
f 305/1/3 301/1/3 304/1/3
f 306/2/3 303/2/3 302/2/3
f 307/1/3 304/1/3 303/1/3
f 307/2/3 303/2/3 306/2/3
f 308/1/3 304/1/3 307/1/3
f 311/1/3 307/1/3 306/1/3
f 312/1/3 307/1/3 311/1/3
f 314/3/3 310/3/3 309/3/3
f 315/4/3 311/4/3 310/4/3
f 315/3/3 310/3/3 314/3/3
f 316/4/3 311/4/3 315/4/3
f 318/3/3 314/3/3 313/3/3
f 319/4/3 315/4/3 314/4/3
f 319/3/3 314/3/3 318/3/3
f 319/4/3 316/4/3 315/4/3
f 320/4/3 316/4/3 319/4/3
f 321/3/3 317/3/3 316/3/3
f 321/4/3 316/4/3 320/4/3
f 322/3/3 317/3/3 321/3/3
f 323/4/3 320/4/3 319/4/3
f 323/4/3 319/4/3 318/4/3
f 324/4/3 320/4/3 323/4/3
f 325/3/3 321/3/3 320/3/3
f 325/4/3 320/4/3 324/4/3
f 326/4/3 322/4/3 321/4/3
f 326/3/3 321/3/3 325/3/3
f 327/4/3 322/4/3 326/4/3
f 328/3/3 325/3/3 324/3/3
f 329/4/3 326/4/3 325/4/3
f 329/3/3 325/3/3 328/3/3
f 330/4/3 326/4/3 329/4/3
f 334/2/3 332/2/3 331/2/3
f 335/1/3 333/1/3 332/1/3
f 335/2/3 332/2/3 334/2/3
f 336/1/3 333/1/3 335/1/3
f 340/2/3 338/2/3 337/2/3
f 341/1/3 339/1/3 338/1/3
f 341/2/3 338/2/3 340/2/3
f 342/1/3 339/1/3 341/1/3
f 346/2/3 344/2/3 343/2/3
f 347/1/3 345/1/3 344/1/3
f 347/2/3 344/2/3 346/2/3
f 348/1/3 345/1/3 347/1/3
f 349/3/4 350/3/4 353/3/4
f 350/4/4 351/4/4 354/4/4
f 353/3/4 350/3/4 354/3/4
f 354/4/4 351/4/4 355/4/4
f 352/4/4 353/4/4 357/4/4
f 353/4/4 354/4/4 357/4/4
f 357/4/4 354/4/4 358/4/4
f 354/3/4 355/3/4 359/3/4
f 358/4/4 354/4/4 359/4/4
f 355/4/4 356/4/4 360/4/4
f 359/3/4 355/3/4 360/3/4
f 360/4/4 356/4/4 361/4/4
f 357/3/4 358/3/4 362/3/4
f 358/4/4 359/4/4 363/4/4
f 362/3/4 358/3/4 363/3/4
f 359/4/4 360/4/4 363/4/4
f 363/4/4 360/4/4 364/4/4
f 360/3/4 361/3/4 365/3/4
f 364/4/4 360/4/4 365/4/4
f 365/3/4 361/3/4 366/3/4
f 363/3/4 364/3/4 367/3/4
f 364/4/4 365/4/4 368/4/4
f 367/3/4 364/3/4 368/3/4
f 368/4/4 365/4/4 369/4/4
f 369/1/4 370/1/4 372/1/4
f 372/1/4 370/1/4 373/1/4
f 372/2/4 373/2/4 375/2/4
f 373/1/4 374/1/4 375/1/4
f 371/2/4 372/2/4 375/2/4
f 375/1/4 374/1/4 376/1/4
f 371/2/4 375/2/4 378/2/4
f 375/2/4 376/2/4 378/2/4
f 376/1/4 377/1/4 379/1/4
f 378/2/4 376/2/4 379/2/4
f 379/1/4 377/1/4 380/1/4
f 371/2/4 378/2/4 381/2/4
f 381/2/4 378/2/4 382/2/4
f 378/1/4 379/1/4 383/1/4
f 382/2/4 378/2/4 383/2/4
f 383/1/4 379/1/4 384/1/4
f 382/1/4 383/1/4 387/1/4
f 387/1/4 383/1/4 388/1/4
f 385/3/4 386/3/4 390/3/4
f 386/4/4 387/4/4 391/4/4
f 390/3/4 386/3/4 391/3/4
f 391/4/4 387/4/4 392/4/4
f 389/3/4 390/3/4 394/3/4
f 390/4/4 391/4/4 395/4/4
f 394/3/4 390/3/4 395/3/4
f 391/4/4 392/4/4 395/4/4
f 395/4/4 392/4/4 396/4/4
f 392/3/4 393/3/4 397/3/4
f 396/4/4 392/4/4 397/4/4
f 397/3/4 393/3/4 398/3/4
f 395/4/4 396/4/4 399/4/4
f 394/4/4 395/4/4 399/4/4
f 399/4/4 396/4/4 400/4/4
f 396/3/4 397/3/4 401/3/4
f 400/4/4 396/4/4 401/4/4
f 397/4/4 398/4/4 402/4/4
f 401/3/4 397/3/4 402/3/4
f 402/4/4 398/4/4 403/4/4
f 400/3/4 401/3/4 404/3/4
f 401/4/4 402/4/4 405/4/4
f 404/3/4 401/3/4 405/3/4
f 405/4/4 402/4/4 406/4/4
f 407/2/4 408/2/4 410/2/4
f 408/1/4 409/1/4 411/1/4
f 410/2/4 408/2/4 411/2/4
f 411/1/4 409/1/4 412/1/4
f 410/5/4 411/5/4 414/5/4
f 411/5/4 412/5/4 414/5/4
f 414/5/4 412/5/4 415/5/4
f 413/5/4 414/5/4 417/5/4
f 417/5/4 414/5/4 418/5/4
f 415/5/4 416/5/4 419/5/4
f 419/5/4 416/5/4 420/5/4
f 413/5/4 417/5/4 421/5/4
f 420/5/4 416/5/4 424/5/4
f 421/5/4 422/5/4 425/5/4
f 413/5/4 421/5/4 425/5/4
f 425/5/4 422/5/4 426/5/4
f 423/5/4 424/5/4 427/5/4
f 424/5/4 416/5/4 428/5/4
f 427/5/4 424/5/4 428/5/4
f 426/5/4 427/5/4 429/5/4
f 429/5/4 427/5/4 430/5/4
f 431/5/4 432/5/4 434/5/4
f 434/5/4 432/5/4 435/5/4
f 433/5/4 434/5/4 437/5/4
f 437/5/4 434/5/4 438/5/4
f 435/5/4 436/5/4 439/5/4
f 439/5/4 436/5/4 440/5/4
f 433/5/4 437/5/4 441/5/4
f 440/5/4 436/5/4 444/5/4
f 441/5/4 442/5/4 445/5/4
f 433/5/4 441/5/4 445/5/4
f 445/5/4 442/5/4 446/5/4
f 443/5/4 444/5/4 447/5/4
f 444/5/4 436/5/4 448/5/4
f 447/5/4 444/5/4 448/5/4
f 446/5/4 447/5/4 449/5/4
f 449/5/4 447/5/4 450/5/4
f 450/5/4 447/5/4 451/5/4
f 449/2/4 450/2/4 452/2/4
f 450/1/4 451/1/4 453/1/4
f 452/2/4 450/2/4 453/2/4
f 453/1/4 451/1/4 454/1/4
f 455/2/4 456/2/4 458/2/4
f 456/1/4 457/1/4 459/1/4
f 458/2/4 456/2/4 459/2/4
f 459/1/4 457/1/4 460/1/4
f 465/5/5 462/5/5 461/5/5
f 466/5/5 462/5/5 465/5/5
f 467/5/5 464/5/5 463/5/5
f 468/5/5 464/5/5 467/5/5
f 478/5/5 470/5/5 469/5/5
f 479/5/5 476/5/5 475/5/5
f 481/2/5 478/2/5 477/2/5
f 482/5/5 470/5/5 478/5/5
f 482/2/5 478/2/5 481/2/5
f 483/5/5 470/5/5 482/5/5
f 484/5/5 472/5/5 471/5/5
f 485/5/5 472/5/5 484/5/5
f 486/5/5 474/5/5 473/5/5
f 487/5/5 474/5/5 486/5/5
f 488/5/5 479/5/5 475/5/5
f 489/2/5 480/2/5 479/2/5
f 489/5/5 479/5/5 488/5/5
f 490/2/5 480/2/5 489/2/5
f 491/2/5 481/2/5 477/2/5
f 492/2/5 480/2/5 490/2/5
f 493/2/5 491/2/5 477/2/5
f 493/2/5 492/2/5 491/2/5
f 494/2/5 480/2/5 492/2/5
f 494/2/5 492/2/5 493/2/5
f 498/2/5 496/2/5 495/2/5
f 499/2/5 496/2/5 498/2/5
f 501/2/5 498/2/5 497/2/5
f 501/2/5 500/2/5 499/2/5
f 501/2/5 499/2/5 498/2/5
f 502/2/5 500/2/5 501/2/5
f 511/5/5 504/5/5 503/5/5
f 512/5/5 504/5/5 511/5/5
f 513/5/5 506/5/5 505/5/5
f 514/5/5 506/5/5 513/5/5
f 515/5/5 508/5/5 507/5/5
f 516/5/5 508/5/5 515/5/5
f 517/5/5 510/5/5 509/5/5
f 518/5/5 510/5/5 517/5/5
f 527/5/5 520/5/5 519/5/5
f 528/5/5 520/5/5 527/5/5
f 529/5/5 522/5/5 521/5/5
f 530/5/5 522/5/5 529/5/5
f 531/5/5 524/5/5 523/5/5
f 532/5/5 524/5/5 531/5/5
f 533/5/5 526/5/5 525/5/5
f 534/5/5 526/5/5 533/5/5
f 539/5/5 536/5/5 535/5/5
f 540/5/5 536/5/5 539/5/5
f 541/5/5 536/5/5 540/5/5
f 542/5/5 538/5/5 537/5/5
f 543/5/5 538/5/5 542/5/5
f 544/5/5 538/5/5 543/5/5
f 551/5/5 546/5/5 545/5/5
f 551/5/5 547/5/5 546/5/5
f 552/5/5 547/5/5 551/5/5
f 553/5/5 550/5/5 549/5/5
f 553/5/5 549/5/5 548/5/5
f 554/5/5 550/5/5 553/5/5
f 555/5/6 556/5/6 559/5/6
f 559/5/6 556/5/6 560/5/6
f 560/5/6 556/5/6 561/5/6
f 557/5/6 558/5/6 562/5/6
f 562/5/6 558/5/6 563/5/6
f 563/5/6 558/5/6 564/5/6
f 565/5/6 566/5/6 571/5/6
f 566/5/6 567/5/6 571/5/6
f 571/5/6 567/5/6 572/5/6
f 569/5/6 570/5/6 573/5/6
f 568/5/6 569/5/6 573/5/6
f 573/5/6 570/5/6 574/5/6
f 575/5/6 576/5/6 583/5/6
f 583/5/6 576/5/6 584/5/6
f 577/5/6 578/5/6 585/5/6
f 585/5/6 578/5/6 586/5/6
f 579/5/6 580/5/6 587/5/6
f 587/5/6 580/5/6 588/5/6
f 581/5/6 582/5/6 589/5/6
f 589/5/6 582/5/6 590/5/6
f 591/5/6 592/5/6 599/5/6
f 599/5/6 592/5/6 600/5/6
f 593/5/6 594/5/6 601/5/6
f 601/5/6 594/5/6 602/5/6
f 595/5/6 596/5/6 603/5/6
f 603/5/6 596/5/6 604/5/6
f 597/5/6 598/5/6 605/5/6
f 605/5/6 598/5/6 606/5/6
f 607/2/6 608/2/6 613/2/6
f 613/2/6 608/2/6 614/2/6
f 611/5/6 612/5/6 619/5/6
f 612/2/6 613/2/6 620/2/6
f 619/5/6 612/5/6 620/5/6
f 620/2/6 613/2/6 621/2/6
f 614/2/6 615/2/6 622/2/6
f 615/5/6 616/5/6 623/5/6
f 622/2/6 615/2/6 623/2/6
f 623/5/6 616/5/6 624/5/6
f 609/5/6 610/5/6 626/5/6
f 617/5/6 618/5/6 631/5/6
f 625/1/6 626/1/6 633/1/6
f 626/5/6 610/5/6 634/5/6
f 633/1/6 626/1/6 634/1/6
f 634/5/6 610/5/6 635/5/6
f 627/5/6 628/5/6 636/5/6
f 636/5/6 628/5/6 637/5/6
f 629/5/6 630/5/6 638/5/6
f 638/5/6 630/5/6 639/5/6
f 617/5/6 631/5/6 640/5/6
f 631/1/6 632/1/6 641/1/6
f 640/5/6 631/5/6 641/5/6
f 641/1/6 632/1/6 642/1/6
f 625/1/6 633/1/6 643/1/6
f 642/1/6 632/1/6 644/1/6
f 625/1/6 643/1/6 645/1/6
f 643/1/6 644/1/6 645/1/6
f 644/1/6 632/1/6 646/1/6
f 645/1/6 644/1/6 646/1/6
f 647/2/6 648/2/6 651/2/6
f 651/2/6 648/2/6 652/2/6
f 649/1/6 650/1/6 655/1/6
f 655/1/6 650/1/6 656/1/6
f 653/1/6 654/1/6 657/1/6
f 657/1/6 654/1/6 658/1/6
f 663/1/6 664/1/6 667/1/6
f 667/1/6 664/1/6 668/1/6
f 665/1/6 666/1/6 669/1/6
f 669/1/6 666/1/6 670/1/6
f 659/5/6 660/5/6 671/5/6
f 671/5/6 660/5/6 672/5/6
f 661/5/6 662/5/6 673/5/6
f 673/5/6 662/5/6 674/5/6
f 675/1/6 676/1/6 677/1/6
f 677/1/6 676/1/6 678/1/6
