# MagicaVoxel @ Ephtracy

# group
o 

# material
mtllib hoja4.mtl
usemtl palette

# normals
vn -1 0 0
vn 1 0 0
vn 0 0 1
vn 0 0 -1
vn 0 -1 0
vn 0 1 0

# texcoords
vt 0.826172 0.5
vt 0.857422 0.5
vt 0.861328 0.5

# verts
v 0.2 2 -0.5
v 0.2 2 -0.7
v 0.2 2.1 -0.5
v 0.2 2.1 -0.7
v 0.3 2 -0.4
v 0.3 2 -0.5
v 0.3 2 -0.7
v 0.3 2 -0.8
v 0.3 2.1 -0.4
v 0.3 2.1 -0.5
v 0.3 2.1 -0.7
v 0.3 2.1 -0.8
v 0.5 2 -0.3
v 0.5 2 -0.4
v 0.5 2 -0.8
v 0.5 2 -0.9
v 0.5 2.1 -0.3
v 0.5 2.1 -0.4
v 0.5 2.1 -0.8
v 0.5 2.1 -0.9
v 0.6 2 -0.2
v 0.6 2 -0.3
v 0.6 2.1 -0.2
v 0.6 2.1 -0.3
v 0.7 2 -0.1
v 0.7 2 -0.2
v 0.7 2.1 -0.1
v 0.7 2.1 -0.2
v 0.9 2 0
v 0.9 2 -0.1
v 0.9 2.1 0
v 0.9 2.1 -0.1
v 1.4 2 -0.1
v 1.4 2 -0.2
v 1.4 2.1 -0.1
v 1.4 2.1 -0.2
v 1.6 2 -0.2
v 1.6 2 -0.3
v 1.6 2.1 -0.2
v 1.6 2.1 -0.3
v 0.8 2 -0.8
v 0.8 2 -0.9
v 0.8 2.1 -0.8
v 0.8 2.1 -0.9
v 1 2 -0.7
v 1 2 -0.8
v 1 2.1 -0.7
v 1 2.1 -0.8
v 1.2 2 0
v 1.2 2 -0.1
v 1.2 2 -0.6
v 1.2 2 -0.7
v 1.2 2.1 0
v 1.2 2.1 -0.1
v 1.2 2.1 -0.6
v 1.2 2.1 -0.7
v 1.3 2 -0.1
v 1.3 2 -0.2
v 1.3 2.1 -0.1
v 1.3 2.1 -0.2
v 1.4 2 -0.2
v 1.4 2 -0.3
v 1.4 2 -0.4
v 1.4 2 -0.5
v 1.4 2 -0.6
v 1.4 2.1 -0.2
v 1.4 2.1 -0.3
v 1.4 2.1 -0.4
v 1.4 2.1 -0.5
v 1.4 2.1 -0.6
v 1.5 2 -0.4
v 1.5 2 -0.5
v 1.5 2.1 -0.4
v 1.5 2.1 -0.5
v 1.6 2 -0.1
v 1.6 2 -0.2
v 1.6 2.1 -0.1
v 1.6 2.1 -0.2
v 1.7 2 -0.2
v 1.7 2 -0.3
v 1.7 2.1 -0.2
v 1.7 2.1 -0.3
v 0.9 2 0
v 0.9 2.1 0
v 1.2 2 0
v 1.2 2.1 0
v 0.7 2 -0.1
v 0.7 2.1 -0.1
v 0.9 2 -0.1
v 0.9 2.1 -0.1
v 1.2 2 -0.1
v 1.2 2.1 -0.1
v 1.3 2 -0.1
v 1.3 2.1 -0.1
v 1.4 2 -0.1
v 1.4 2.1 -0.1
v 1.6 2 -0.1
v 1.6 2.1 -0.1
v 0.6 2 -0.2
v 0.6 2.1 -0.2
v 0.7 2 -0.2
v 0.7 2.1 -0.2
v 1.3 2 -0.2
v 1.3 2.1 -0.2
v 1.4 2 -0.2
v 1.4 2.1 -0.2
v 1.6 2 -0.2
v 1.6 2.1 -0.2
v 1.7 2 -0.2
v 1.7 2.1 -0.2
v 0.5 2 -0.3
v 0.5 2.1 -0.3
v 0.6 2 -0.3
v 0.6 2.1 -0.3
v 0.3 2 -0.4
v 0.3 2.1 -0.4
v 0.5 2 -0.4
v 0.5 2.1 -0.4
v 1.4 2 -0.4
v 1.4 2.1 -0.4
v 1.5 2 -0.4
v 1.5 2.1 -0.4
v 0.2 2 -0.5
v 0.2 2.1 -0.5
v 0.3 2 -0.5
v 0.3 2.1 -0.5
v 1.4 2 -0.2
v 1.4 2.1 -0.2
v 1.6 2 -0.2
v 1.6 2.1 -0.2
v 1.6 2 -0.3
v 1.6 2.1 -0.3
v 1.7 2 -0.3
v 1.7 2.1 -0.3
v 1.4 2 -0.5
v 1.4 2.1 -0.5
v 1.5 2 -0.5
v 1.5 2.1 -0.5
v 1.2 2 -0.6
v 1.2 2.1 -0.6
v 1.4 2 -0.6
v 1.4 2.1 -0.6
v 0.2 2 -0.7
v 0.2 2.1 -0.7
v 0.3 2 -0.7
v 0.3 2.1 -0.7
v 1 2 -0.7
v 1 2.1 -0.7
v 1.2 2 -0.7
v 1.2 2.1 -0.7
v 0.3 2 -0.8
v 0.3 2.1 -0.8
v 0.5 2 -0.8
v 0.5 2.1 -0.8
v 0.8 2 -0.8
v 0.8 2.1 -0.8
v 1 2 -0.8
v 1 2.1 -0.8
v 0.5 2 -0.9
v 0.5 2.1 -0.9
v 0.8 2 -0.9
v 0.8 2.1 -0.9
v 0.9 2 0
v 1.2 2 0
v 0.7 2 -0.1
v 0.9 2 -0.1
v 1.2 2 -0.1
v 1.3 2 -0.1
v 1.4 2 -0.1
v 1.6 2 -0.1
v 0.6 2 -0.2
v 0.7 2 -0.2
v 1.3 2 -0.2
v 1.4 2 -0.2
v 1.6 2 -0.2
v 1.7 2 -0.2
v 0.5 2 -0.3
v 0.6 2 -0.3
v 1.1 2 -0.3
v 1.3 2 -0.3
v 1.4 2 -0.3
v 1.6 2 -0.3
v 1.7 2 -0.3
v 0.3 2 -0.4
v 0.5 2 -0.4
v 0.9 2 -0.4
v 1.1 2 -0.4
v 1.3 2 -0.4
v 1.4 2 -0.4
v 1.5 2 -0.4
v 0.2 2 -0.5
v 0.3 2 -0.5
v 0.4 2 -0.5
v 0.5 2 -0.5
v 0.7 2 -0.5
v 0.9 2 -0.5
v 1.1 2 -0.5
v 1.4 2 -0.5
v 1.5 2 -0.5
v 0.4 2 -0.6
v 0.5 2 -0.6
v 0.7 2 -0.6
v 0.9 2 -0.6
v 1.2 2 -0.6
v 1.4 2 -0.6
v 0.2 2 -0.7
v 0.3 2 -0.7
v 0.5 2 -0.7
v 0.7 2 -0.7
v 1 2 -0.7
v 1.2 2 -0.7
v 0.3 2 -0.8
v 0.5 2 -0.8
v 0.8 2 -0.8
v 1 2 -0.8
v 0.5 2 -0.9
v 0.8 2 -0.9
v 0.9 2.1 0
v 1.2 2.1 0
v 0.7 2.1 -0.1
v 0.9 2.1 -0.1
v 1.2 2.1 -0.1
v 1.3 2.1 -0.1
v 1.4 2.1 -0.1
v 1.6 2.1 -0.1
v 0.6 2.1 -0.2
v 0.7 2.1 -0.2
v 1.3 2.1 -0.2
v 1.4 2.1 -0.2
v 1.6 2.1 -0.2
v 1.7 2.1 -0.2
v 0.5 2.1 -0.3
v 0.6 2.1 -0.3
v 1.1 2.1 -0.3
v 1.3 2.1 -0.3
v 1.4 2.1 -0.3
v 1.6 2.1 -0.3
v 1.7 2.1 -0.3
v 0.3 2.1 -0.4
v 0.5 2.1 -0.4
v 0.9 2.1 -0.4
v 1.1 2.1 -0.4
v 1.3 2.1 -0.4
v 1.4 2.1 -0.4
v 1.5 2.1 -0.4
v 0.2 2.1 -0.5
v 0.3 2.1 -0.5
v 0.4 2.1 -0.5
v 0.5 2.1 -0.5
v 0.7 2.1 -0.5
v 0.9 2.1 -0.5
v 1.1 2.1 -0.5
v 1.4 2.1 -0.5
v 1.5 2.1 -0.5
v 0.4 2.1 -0.6
v 0.5 2.1 -0.6
v 0.7 2.1 -0.6
v 0.9 2.1 -0.6
v 1.2 2.1 -0.6
v 1.4 2.1 -0.6
v 0.2 2.1 -0.7
v 0.3 2.1 -0.7
v 0.5 2.1 -0.7
v 0.7 2.1 -0.7
v 1 2.1 -0.7
v 1.2 2.1 -0.7
v 0.3 2.1 -0.8
v 0.5 2.1 -0.8
v 0.8 2.1 -0.8
v 1 2.1 -0.8
v 0.5 2.1 -0.9
v 0.8 2.1 -0.9

# faces
f 3/2/1 2/2/1 1/2/1
f 4/2/1 2/2/1 3/2/1
f 9/2/1 6/2/1 5/2/1
f 10/2/1 6/2/1 9/2/1
f 11/2/1 8/2/1 7/2/1
f 12/2/1 8/2/1 11/2/1
f 17/2/1 14/2/1 13/2/1
f 18/2/1 14/2/1 17/2/1
f 19/2/1 16/2/1 15/2/1
f 20/2/1 16/2/1 19/2/1
f 23/2/1 22/2/1 21/2/1
f 24/2/1 22/2/1 23/2/1
f 27/2/1 26/2/1 25/2/1
f 28/2/1 26/2/1 27/2/1
f 31/2/1 30/2/1 29/2/1
f 32/2/1 30/2/1 31/2/1
f 35/1/1 34/1/1 33/1/1
f 36/1/1 34/1/1 35/1/1
f 39/1/1 38/1/1 37/1/1
f 40/1/1 38/1/1 39/1/1
f 41/2/2 42/2/2 43/2/2
f 43/2/2 42/2/2 44/2/2
f 45/2/2 46/2/2 47/2/2
f 47/2/2 46/2/2 48/2/2
f 49/2/2 50/2/2 53/2/2
f 53/2/2 50/2/2 54/2/2
f 51/2/2 52/2/2 55/2/2
f 55/2/2 52/2/2 56/2/2
f 57/2/2 58/2/2 59/2/2
f 59/2/2 58/2/2 60/2/2
f 61/1/2 62/1/2 66/1/2
f 62/2/2 63/2/2 67/2/2
f 66/1/2 62/1/2 67/1/2
f 67/2/2 63/2/2 68/2/2
f 64/2/2 65/2/2 69/2/2
f 69/2/2 65/2/2 70/2/2
f 71/2/2 72/2/2 73/2/2
f 73/2/2 72/2/2 74/2/2
f 75/1/2 76/1/2 77/1/2
f 77/1/2 76/1/2 78/1/2
f 79/1/2 80/1/2 81/1/2
f 81/1/2 80/1/2 82/1/2
f 85/2/3 84/2/3 83/2/3
f 86/2/3 84/2/3 85/2/3
f 89/2/3 88/2/3 87/2/3
f 90/2/3 88/2/3 89/2/3
f 93/2/3 92/2/3 91/2/3
f 94/2/3 92/2/3 93/2/3
f 97/1/3 96/1/3 95/1/3
f 98/1/3 96/1/3 97/1/3
f 101/2/3 100/2/3 99/2/3
f 102/2/3 100/2/3 101/2/3
f 105/1/3 104/1/3 103/1/3
f 106/1/3 104/1/3 105/1/3
f 109/1/3 108/1/3 107/1/3
f 110/1/3 108/1/3 109/1/3
f 113/2/3 112/2/3 111/2/3
f 114/2/3 112/2/3 113/2/3
f 117/2/3 116/2/3 115/2/3
f 118/2/3 116/2/3 117/2/3
f 121/2/3 120/2/3 119/2/3
f 122/2/3 120/2/3 121/2/3
f 125/2/3 124/2/3 123/2/3
f 126/2/3 124/2/3 125/2/3
f 127/1/4 128/1/4 129/1/4
f 129/1/4 128/1/4 130/1/4
f 131/1/4 132/1/4 133/1/4
f 133/1/4 132/1/4 134/1/4
f 135/2/4 136/2/4 137/2/4
f 137/2/4 136/2/4 138/2/4
f 139/2/4 140/2/4 141/2/4
f 141/2/4 140/2/4 142/2/4
f 143/2/4 144/2/4 145/2/4
f 145/2/4 144/2/4 146/2/4
f 147/2/4 148/2/4 149/2/4
f 149/2/4 148/2/4 150/2/4
f 151/2/4 152/2/4 153/2/4
f 153/2/4 152/2/4 154/2/4
f 155/2/4 156/2/4 157/2/4
f 157/2/4 156/2/4 158/2/4
f 159/2/4 160/2/4 161/2/4
f 161/2/4 160/2/4 162/2/4
f 166/2/5 164/2/5 163/2/5
f 167/2/5 164/2/5 166/2/5
f 172/2/5 166/2/5 165/2/5
f 172/2/5 167/2/5 166/2/5
f 172/2/5 168/2/5 167/2/5
f 173/2/5 168/2/5 172/2/5
f 174/1/5 170/1/5 169/1/5
f 175/1/5 170/1/5 174/1/5
f 178/2/5 173/2/5 172/2/5
f 178/2/5 172/2/5 171/2/5
f 179/2/5 173/2/5 178/2/5
f 180/1/5 174/1/5 173/1/5
f 180/2/5 173/2/5 179/2/5
f 181/1/5 174/1/5 180/1/5
f 182/1/5 176/1/5 175/1/5
f 183/1/5 176/1/5 182/1/5
f 185/2/5 179/2/5 178/2/5
f 185/2/5 178/2/5 177/2/5
f 186/2/5 179/2/5 185/2/5
f 187/3/5 180/3/5 179/3/5
f 187/2/5 179/2/5 186/2/5
f 188/2/5 181/2/5 180/2/5
f 188/3/5 180/3/5 187/3/5
f 189/2/5 181/2/5 188/2/5
f 192/2/5 186/2/5 185/2/5
f 192/2/5 185/2/5 184/2/5
f 193/2/5 186/2/5 192/2/5
f 194/2/5 186/2/5 193/2/5
f 195/2/5 186/2/5 194/2/5
f 196/3/5 187/3/5 186/3/5
f 196/2/5 186/2/5 195/2/5
f 197/2/5 190/2/5 189/2/5
f 197/3/5 187/3/5 196/3/5
f 197/2/5 189/2/5 188/2/5
f 197/2/5 188/2/5 187/2/5
f 198/2/5 190/2/5 197/2/5
f 199/2/5 190/2/5 198/2/5
f 200/3/5 194/3/5 193/3/5
f 200/2/5 193/2/5 192/2/5
f 200/2/5 192/2/5 191/2/5
f 201/2/5 195/2/5 194/2/5
f 201/3/5 194/3/5 200/3/5
f 202/3/5 196/3/5 195/3/5
f 202/2/5 195/2/5 201/2/5
f 203/2/5 198/2/5 197/2/5
f 203/3/5 196/3/5 202/3/5
f 203/2/5 197/2/5 196/2/5
f 204/2/5 198/2/5 203/2/5
f 205/2/5 198/2/5 204/2/5
f 206/2/5 200/2/5 191/2/5
f 206/2/5 201/2/5 200/2/5
f 207/2/5 201/2/5 206/2/5
f 208/3/5 202/3/5 201/3/5
f 208/2/5 201/2/5 207/2/5
f 209/2/5 204/2/5 203/2/5
f 209/3/5 202/3/5 208/3/5
f 209/2/5 203/2/5 202/2/5
f 210/2/5 204/2/5 209/2/5
f 211/2/5 204/2/5 210/2/5
f 212/2/5 208/2/5 207/2/5
f 212/2/5 210/2/5 209/2/5
f 212/2/5 209/2/5 208/2/5
f 213/2/5 210/2/5 212/2/5
f 214/2/5 210/2/5 213/2/5
f 215/2/5 210/2/5 214/2/5
f 216/2/5 214/2/5 213/2/5
f 217/2/5 214/2/5 216/2/5
f 218/2/6 219/2/6 221/2/6
f 221/2/6 219/2/6 222/2/6
f 220/2/6 221/2/6 227/2/6
f 221/2/6 222/2/6 227/2/6
f 222/2/6 223/2/6 227/2/6
f 227/2/6 223/2/6 228/2/6
f 224/1/6 225/1/6 229/1/6
f 229/1/6 225/1/6 230/1/6
f 227/2/6 228/2/6 233/2/6
f 226/2/6 227/2/6 233/2/6
f 233/2/6 228/2/6 234/2/6
f 228/1/6 229/1/6 235/1/6
f 234/2/6 228/2/6 235/2/6
f 235/1/6 229/1/6 236/1/6
f 230/1/6 231/1/6 237/1/6
f 237/1/6 231/1/6 238/1/6
f 233/2/6 234/2/6 240/2/6
f 232/2/6 233/2/6 240/2/6
f 240/2/6 234/2/6 241/2/6
f 234/3/6 235/3/6 242/3/6
f 241/2/6 234/2/6 242/2/6
f 235/2/6 236/2/6 243/2/6
f 242/3/6 235/3/6 243/3/6
f 243/2/6 236/2/6 244/2/6
f 240/2/6 241/2/6 247/2/6
f 239/2/6 240/2/6 247/2/6
f 247/2/6 241/2/6 248/2/6
f 248/2/6 241/2/6 249/2/6
f 249/2/6 241/2/6 250/2/6
f 241/3/6 242/3/6 251/3/6
f 250/2/6 241/2/6 251/2/6
f 244/2/6 245/2/6 252/2/6
f 251/3/6 242/3/6 252/3/6
f 243/2/6 244/2/6 252/2/6
f 242/2/6 243/2/6 252/2/6
f 252/2/6 245/2/6 253/2/6
f 253/2/6 245/2/6 254/2/6
f 248/3/6 249/3/6 255/3/6
f 247/2/6 248/2/6 255/2/6
f 246/2/6 247/2/6 255/2/6
f 249/2/6 250/2/6 256/2/6
f 255/3/6 249/3/6 256/3/6
f 250/3/6 251/3/6 257/3/6
f 256/2/6 250/2/6 257/2/6
f 252/2/6 253/2/6 258/2/6
f 257/3/6 251/3/6 258/3/6
f 251/2/6 252/2/6 258/2/6
f 258/2/6 253/2/6 259/2/6
f 259/2/6 253/2/6 260/2/6
f 246/2/6 255/2/6 261/2/6
f 255/2/6 256/2/6 261/2/6
f 261/2/6 256/2/6 262/2/6
f 256/3/6 257/3/6 263/3/6
f 262/2/6 256/2/6 263/2/6
f 258/2/6 259/2/6 264/2/6
f 263/3/6 257/3/6 264/3/6
f 257/2/6 258/2/6 264/2/6
f 264/2/6 259/2/6 265/2/6
f 265/2/6 259/2/6 266/2/6
f 262/2/6 263/2/6 267/2/6
f 264/2/6 265/2/6 267/2/6
f 263/2/6 264/2/6 267/2/6
f 267/2/6 265/2/6 268/2/6
f 268/2/6 265/2/6 269/2/6
f 269/2/6 265/2/6 270/2/6
f 268/2/6 269/2/6 271/2/6
f 271/2/6 269/2/6 272/2/6
