# Blender 3.1.0
# www.blender.org
mtllib tramoline.mtl
o Cylinder.002
v -3.880026 2.005712 -7.952167
v -2.806393 2.005712 -7.738608
v -1.614620 2.005712 -7.013804
v -0.895124 2.005712 -5.848710
v -0.676258 2.005712 -4.748399
v -0.892035 2.005712 -3.663618
v -1.614620 2.005712 -2.482993
v -2.792846 2.005712 -1.760885
v -3.880026 2.005712 -1.544631
v -4.973892 2.005712 -1.762214
v -6.145431 2.005712 -2.482992
v -6.866191 2.005712 -3.654435
v -7.083794 2.005712 -4.748399
v -6.864510 2.005712 -5.850814
v -6.145431 2.005712 -7.013805
v -4.967063 2.005712 -7.735942
v -3.880026 2.101465 -8.502050
v -2.622119 2.101465 -8.251837
v -1.225794 2.101465 -7.402631
v -0.382806 2.101465 -6.037563
v -0.126375 2.101465 -4.748399
v -0.379186 2.101465 -3.477429
v -1.225794 2.101465 -2.094167
v -2.606247 2.101465 -1.248118
v -3.880026 2.101465 -0.994747
v -5.161640 2.101465 -1.249676
v -6.534258 2.101465 -2.094165
v -7.378726 2.101465 -3.466671
v -7.633677 2.101465 -4.748399
v -7.376757 2.101465 -6.040029
v -6.534258 2.101465 -7.402632
v -5.153639 2.101465 -8.248713
v -2.559113 0.213806 -8.427317
v -1.092849 0.213806 -7.535576
v -0.207637 0.213806 -6.102135
v -0.203837 0.213806 -3.413769
v -1.092849 0.213806 -1.961222
v -2.542446 0.213806 -1.072796
v -5.225833 0.213806 -1.074433
v -6.667202 0.213806 -1.961221
v -7.553968 0.213806 -3.402472
v -7.551900 0.213806 -6.104723
v -6.667202 0.213806 -7.535577
v -5.217431 0.213806 -8.424036
v -2.559113 2.083259 -8.427317
v -1.092849 2.083259 -7.535576
v -0.207637 2.083259 -6.102135
v 0.061638 2.083259 -4.748399
v -0.203837 2.083259 -3.413769
v -1.092849 2.083259 -1.961222
v -2.542446 2.083259 -1.072796
v -3.880026 2.083259 -0.806735
v -5.225833 2.083259 -1.074433
v -6.667202 2.083259 -1.961221
v -7.553968 2.083259 -3.402472
v -7.821690 2.083259 -4.748399
v -7.551900 2.083259 -6.104723
v -6.667202 2.083259 -7.535577
v -5.217431 2.083259 -8.424036
v -3.880026 2.083259 -8.690063
v -2.424823 0.440469 -8.261570
v -1.191161 0.440469 -7.437263
v -0.366856 0.440469 -6.203602
v -0.366856 0.440469 -3.293195
v -1.191161 0.440469 -2.059534
v -2.424823 0.440469 -1.235228
v -5.335228 0.440469 -1.235228
v -6.568890 0.440469 -2.059533
v -7.393197 0.440469 -3.293195
v -7.393197 0.440469 -6.203602
v -6.568890 0.440469 -7.437264
v -5.335227 0.440469 -8.261570
v -3.880026 1.897810 -8.690063
v -2.371617 1.897810 -8.390021
v -1.092849 1.897810 -7.535576
v -0.238404 1.897810 -6.256808
v 0.061638 1.897810 -4.748399
v -0.238404 1.897810 -3.239989
v -1.092849 1.897810 -1.961222
v -2.371616 1.897810 -1.106776
v -3.880026 1.897810 -0.806735
v -5.388434 1.897810 -1.106776
v -6.667202 1.897810 -1.961221
v -7.521648 1.897810 -3.239989
v -7.821690 1.897810 -4.748399
v -7.521648 1.897810 -6.256809
v -6.667202 1.897810 -7.535577
v -5.388433 1.897810 -8.390022
v -2.559113 1.897810 -8.427317
v -5.217431 1.897810 -8.424036
v -7.551900 1.897810 -6.104723
v -7.553968 1.897810 -3.402472
v -5.225833 1.897810 -1.074433
v -2.542446 1.897810 -1.072796
v -0.207637 1.897810 -6.102135
v -0.203837 1.897810 -3.413769
vn -0.1392 3.9233 0.3537
vn -0.0000 3.9232 0.3814
vn 0.1397 3.9233 0.3536
vn 0.2747 3.9224 0.2759
vn 0.3535 3.9233 0.1403
vn 0.3814 3.9232 -0.0000
vn 0.3535 3.9233 -0.1400
vn 0.2753 3.9224 -0.2753
vn 0.1400 3.9233 -0.3535
vn -0.0000 3.9232 -0.3814
vn -0.1397 3.9233 -0.3536
vn -0.2757 3.9223 -0.2755
vn -0.3536 3.9233 -0.1396
vn -0.3814 3.9232 -0.0000
vn -0.3535 3.9233 0.1402
vn -0.2745 3.9223 0.2767
vn -0.0317 3.9406 0.0857
vn -0.0497 3.9410 0.0497
vn -0.0843 3.9406 0.0318
vn -0.0835 3.9408 -0.0000
vn -0.0851 3.9406 -0.0318
vn -0.0496 3.9410 -0.0496
vn -0.0318 3.9406 -0.0850
vn -0.0000 3.9408 -0.0835
vn 0.0318 3.9406 -0.0846
vn 0.0501 3.9410 -0.0501
vn 0.0846 3.9406 -0.0318
vn 0.0835 3.9408 -0.0000
vn 0.0842 3.9406 0.0318
vn 0.0502 3.9410 0.0502
vn 0.0318 3.9406 0.0850
vn -0.0000 3.9408 0.0835
vn -1.0614 2.6461 -2.7218
vn -0.0000 2.4958 -3.0509
vn -2.0085 2.7279 -2.0153
vn -2.7319 2.6313 -1.0722
vn -2.7263 2.6395 1.0662
vn -3.0509 2.4958 -0.0000
vn -2.0110 2.7292 2.0110
vn -1.0662 2.6396 2.7263
vn 1.0615 2.6460 2.7219
vn -0.0000 2.4958 3.0509
vn 2.0032 2.7413 2.0022
vn 2.7203 2.6483 1.0598
vn 2.7305 2.6333 -1.0707
vn 3.0509 2.4958 -0.0000
vn 1.9981 2.7397 -2.0096
vn 1.0521 2.6587 -2.7131
vn 2.0901 0.3790 -3.3203
vn 1.6911 0.1752 -3.5562
vn 2.7411 0.6502 -2.7569
vn 3.5066 0.1404 -1.7947
vn 3.2540 0.3114 -2.2026
vn 3.9417 -0.0000 -0.0000
vn 3.2957 0.3510 2.1335
vn 3.5377 0.1608 1.7307
vn 2.7491 0.6549 2.7477
vn 1.7398 0.1576 3.5334
vn 2.1435 0.3449 3.2899
vn -0.0000 -0.0000 3.9417
vn -2.1726 0.3279 3.2725
vn -1.7667 0.1489 3.5204
vn -2.7522 0.6218 2.7523
vn -3.5202 0.1488 1.7671
vn -3.2722 0.3276 2.1730
vn -3.9417 -0.0000 -0.0000
vn -3.2475 0.3060 -2.2129
vn -3.5017 0.1376 -1.8043
vn -2.7480 0.6182 -2.7573
vn -1.7393 0.1578 -3.5336
vn -2.1429 0.3453 -3.2902
vn -0.0000 -0.0000 -3.9417
vn -2.5084 1.7066 -2.5163
vn -2.5080 1.7066 -2.5167
vn -2.1826 0.7384 -3.1981
vn -2.1542 0.8702 -3.1842
vn -3.1207 0.9470 -2.2139
vn -3.1316 0.7457 -2.2746
vn -2.5131 1.7044 2.5132
vn -3.1703 0.7417 2.2216
vn -3.1566 0.9044 2.1805
vn -2.1802 0.9039 3.1570
vn -2.2210 0.7417 3.1707
vn 2.5212 1.6821 2.5200
vn 2.5213 1.6821 2.5200
vn 2.1833 0.7384 3.1976
vn 2.1547 0.8709 3.1836
vn 3.1928 0.8592 2.1458
vn 3.2065 0.7372 2.1706
vn 2.5128 1.6849 -2.5265
vn 2.5122 1.6849 -2.5272
vn 3.1418 0.7447 -2.2608
vn 3.1299 0.9363 -2.2055
vn 2.1054 0.8063 -3.2333
vn 2.1165 0.7313 -3.2438
s 1
usemtl Material.003
f 2//1 1//2 16//3 15//4 14//5 13//6 12//7 11//8 10//9 9//10 8//11 7//12 6//13 5//14 4//15 3//16
usemtl Material.001
f 18//17 2//1 3//16 19//18
f 19//18 3//16 4//15 20//19
f 20//19 4//15 5//14 21//20
f 22//21 6//13 7//12 23//22
f 23//22 7//12 8//11 24//23
f 24//23 8//11 9//10 25//24
f 26//25 10//9 11//8 27//26
f 27//26 11//8 12//7 28//27
f 28//27 12//7 13//6 29//28
f 30//29 14//5 15//4 31//30
f 31//30 15//4 16//3 32//31
f 32//31 16//3 1//2 17//32
f 17//32 1//2 2//1 18//17
f 29//28 13//6 14//5 30//29
f 25//24 9//10 10//9 26//25
f 21//20 5//14 6//13 22//21
usemtl Material.002
f 59//33 32//31 17//32 60//34
f 58//35 31//30 32//31 59//33
f 57//36 30//29 31//30 58//35
f 55//37 28//27 29//28 56//38
f 54//39 27//26 28//27 55//37
f 53//40 26//25 27//26 54//39
f 51//41 24//23 25//24 52//42
f 50//43 23//22 24//23 51//41
f 49//44 22//21 23//22 50//43
f 47//45 20//19 21//20 48//46
f 46//47 19//18 20//19 47//45
f 45//48 18//17 19//18 46//47
f 74//49 89//50 45//48 46//47 75//51
f 75//51 46//47 47//45 95//52 76//53
f 95//52 47//45 48//46 77//54
f 78//55 96//56 49//44 50//43 79//57
f 79//57 50//43 51//41 94//58 80//59
f 94//58 51//41 52//42 81//60
f 82//61 93//62 53//40 54//39 83//63
f 83//63 54//39 55//37 92//64 84//65
f 92//64 55//37 56//38 85//66
f 86//67 91//68 57//36 58//35 87//69
f 87//69 58//35 59//33 90//70 88//71
f 90//70 59//33 60//34 73//72
f 43//73 71//74 72//75 44//76
f 42//77 70//78 71//74 43//73
f 40//79 68//79 69//80 41//81
f 39//82 67//83 68//79 40//79
f 37//84 65//85 66//86 38//87
f 36//88 64//89 65//85 37//84
f 34//90 62//91 63//92 35//93
f 33//94 61//95 62//91 34//90
f 42//77 91//68 86//67 70//78
f 39//82 93//62 82//61 67//83
f 36//88 96//56 78//55 64//89
f 33//94 89//50 74//49 61//95
f 73//72 60//34 45//48 89//50
f 60//34 17//32 18//17 45//48
f 72//75 88//71 90//70 44//76
f 85//66 56//38 57//36 91//68
f 56//38 29//28 30//29 57//36
f 69//80 84//65 92//64 41//81
f 81//60 52//42 53//40 93//62
f 52//42 25//24 26//25 53//40
f 66//86 80//59 94//58 38//87
f 63//92 76//53 95//52 35//93
f 77//54 48//46 49//44 96//56
f 48//46 21//20 22//21 49//44
