# MagicaVoxel @ Ephtracy

# group
o 

# material
mtllib Verano_Piso_Var1.mtl
usemtl palette

# normals
vn -1 0 0
vn 1 0 0
vn 0 0 1
vn 0 0 -1
vn 0 -1 0
vn 0 1 0

# texcoords
vt 0.845703 0.5
vt 0.849609 0.5
vt 0.876953 0.5

# verts
v 0 2 0
v 0 2 -4
v 0 3.3 0
v 0 3.3 -4
v 0 3.7 0
v 0 3.7 -4
v 0 4.3 0
v 0 4.3 -4
v 0 4.6 0
v 0 4.6 -4
v 0 5.2 0
v 0 5.2 -1.1
v 0 5.2 -1.2
v 0 5.2 -4
v 0 5.3 -0.5
v 0 5.3 -0.6
v 0 5.3 -1
v 0 5.3 -1.1
v 0 5.3 -1.9
v 0 5.3 -2.2
v 0 5.3 -3.4
v 0 5.3 -3.5
v 0 5.4 -1.1
v 0 5.4 -1.2
v 0 5.4 -1.8
v 0 5.4 -1.9
v 0 5.4 -3.3
v 0 5.4 -3.4
v 0 5.5 -0.3
v 0 5.5 -0.5
v 0 5.5 -1.6
v 0 5.5 -1.8
v 0 5.5 -2.2
v 0 5.5 -2.3
v 0 5.5 -3.1
v 0 5.5 -3.3
v 0 5.5 -3.4
v 0 5.5 -3.5
v 0 5.6 0
v 0 5.6 -0.3
v 0 5.6 -0.6
v 0 5.6 -1
v 0 5.6 -1.1
v 0 5.6 -1.6
v 0 5.6 -2.3
v 0 5.6 -3.1
v 0 5.6 -3.4
v 0 5.6 -4
v 0 6 0
v 0 6 -4
v 4 2 0
v 4 2 -4
v 4 3.3 0
v 4 3.3 -4
v 4 3.7 0
v 4 3.7 -4
v 4 4.3 0
v 4 4.3 -4
v 4 4.6 0
v 4 4.6 -4
v 4 5.2 0
v 4 5.2 -0.9
v 4 5.2 -1
v 4 5.2 -2.2
v 4 5.2 -2.4
v 4 5.2 -4
v 4 5.3 -0.5
v 4 5.3 -0.6
v 4 5.3 -0.9
v 4 5.3 -1
v 4 5.3 -1.3
v 4 5.3 -2.1
v 4 5.3 -2.2
v 4 5.3 -2.3
v 4 5.3 -2.4
v 4 5.3 -2.8
v 4 5.3 -2.9
v 4 5.3 -3.3
v 4 5.3 -3.4
v 4 5.4 -0.4
v 4 5.4 -0.5
v 4 5.4 -1.5
v 4 5.4 -1.7
v 4 5.4 -2
v 4 5.4 -2.1
v 4 5.4 -2.2
v 4 5.4 -2.3
v 4 5.4 -2.8
v 4 5.4 -2.9
v 4 5.4 -3
v 4 5.4 -3.1
v 4 5.4 -3.2
v 4 5.4 -3.3
v 4 5.4 -3.4
v 4 5.5 -0.3
v 4 5.5 -0.4
v 4 5.5 -0.5
v 4 5.5 -0.6
v 4 5.5 -0.9
v 4 5.5 -1
v 4 5.5 -1.5
v 4 5.5 -1.6
v 4 5.5 -1.7
v 4 5.5 -1.8
v 4 5.5 -2
v 4 5.5 -2.1
v 4 5.5 -2.2
v 4 5.5 -2.3
v 4 5.5 -3
v 4 5.5 -3.1
v 4 5.6 0
v 4 5.6 -0.3
v 4 5.6 -0.5
v 4 5.6 -0.9
v 4 5.6 -1.3
v 4 5.6 -1.6
v 4 5.6 -1.8
v 4 5.6 -2.1
v 4 5.6 -2.3
v 4 5.6 -2.9
v 4 5.6 -3.2
v 4 5.6 -4
v 4 6 0
v 4 6 -4
v 0 2 0
v 0 3.3 0
v 0 3.7 0
v 0 4.3 0
v 0 4.6 0
v 0 5.2 0
v 0 5.6 0
v 0 6 0
v 0.2 5.4 0
v 0.2 5.5 0
v 0.3 5.5 0
v 0.3 5.6 0
v 0.4 5.4 0
v 0.4 5.5 0
v 0.5 5.5 0
v 0.5 5.6 0
v 0.7 5.5 0
v 0.7 5.6 0
v 0.8 5.3 0
v 0.8 5.5 0
v 0.8 5.6 0
v 0.9 5.3 0
v 0.9 5.5 0
v 1.3 5.3 0
v 1.3 5.5 0
v 1.4 5.3 0
v 1.4 5.4 0
v 1.5 5.5 0
v 1.5 5.6 0
v 1.6 5.4 0
v 1.6 5.6 0
v 1.8 5.3 0
v 1.8 5.5 0
v 1.9 5.3 0
v 1.9 5.4 0
v 1.9 5.5 0
v 1.9 5.6 0
v 2 5.4 0
v 2 5.5 0
v 2.1 5.5 0
v 2.1 5.6 0
v 2.4 5.5 0
v 2.4 5.6 0
v 2.5 5.4 0
v 2.5 5.5 0
v 2.6 5.3 0
v 2.6 5.4 0
v 2.6 5.5 0
v 2.6 5.6 0
v 2.7 5.4 0
v 2.7 5.5 0
v 2.8 5.3 0
v 2.8 5.4 0
v 3.4 5.4 0
v 3.4 5.5 0
v 3.5 5.5 0
v 3.5 5.6 0
v 3.6 5.4 0
v 3.6 5.5 0
v 3.7 5.5 0
v 3.7 5.6 0
v 4 2 0
v 4 3.3 0
v 4 3.7 0
v 4 4.3 0
v 4 4.6 0
v 4 5.2 0
v 4 5.6 0
v 4 6 0
v 0 2 -4
v 0 3.3 -4
v 0 3.7 -4
v 0 4.3 -4
v 0 4.6 -4
v 0 5.2 -4
v 0 5.6 -4
v 0 6 -4
v 0.2 5.2 -4
v 0.2 5.3 -4
v 0.2 5.5 -4
v 0.2 5.6 -4
v 0.3 5.3 -4
v 0.3 5.5 -4
v 0.4 5.2 -4
v 0.4 5.6 -4
v 0.6 5.3 -4
v 0.6 5.5 -4
v 0.7 5.3 -4
v 0.7 5.4 -4
v 0.7 5.5 -4
v 0.7 5.6 -4
v 0.8 5.4 -4
v 0.8 5.5 -4
v 0.9 5.5 -4
v 0.9 5.6 -4
v 1 5.5 -4
v 1 5.6 -4
v 1.1 5.4 -4
v 1.1 5.5 -4
v 1.2 5.3 -4
v 1.2 5.4 -4
v 1.2 5.5 -4
v 1.2 5.6 -4
v 1.3 5.4 -4
v 1.3 5.5 -4
v 1.5 5.3 -4
v 1.5 5.4 -4
v 1.9 5.5 -4
v 1.9 5.6 -4
v 2 5.4 -4
v 2 5.5 -4
v 2.1 5.5 -4
v 2.1 5.6 -4
v 2.3 5.4 -4
v 2.3 5.5 -4
v 2.5 5.2 -4
v 2.5 5.3 -4
v 2.6 5.3 -4
v 2.6 5.4 -4
v 2.7 5.2 -4
v 2.7 5.4 -4
v 2.7 5.5 -4
v 2.8 5.4 -4
v 2.8 5.5 -4
v 2.8 5.6 -4
v 2.9 5.5 -4
v 2.9 5.6 -4
v 3.1 5.5 -4
v 3.1 5.6 -4
v 3.2 5.4 -4
v 3.2 5.5 -4
v 3.3 5.5 -4
v 3.3 5.6 -4
v 3.4 5.4 -4
v 3.4 5.5 -4
v 3.7 5.5 -4
v 3.7 5.6 -4
v 3.8 5.4 -4
v 3.8 5.5 -4
v 3.8 5.6 -4
v 3.9 5.4 -4
v 3.9 5.5 -4
v 4 2 -4
v 4 3.3 -4
v 4 3.7 -4
v 4 4.3 -4
v 4 4.6 -4
v 4 5.2 -4
v 4 5.6 -4
v 4 6 -4
v 0 2 0
v 4 2 0
v 0 2 -4
v 4 2 -4
v 0 6 0
v 4 6 0
v 0 6 -4
v 4 6 -4

# faces
f 3/2/1 2/2/1 1/2/1
f 4/2/1 2/2/1 3/2/1
f 5/1/1 4/1/1 3/1/1
f 6/1/1 4/1/1 5/1/1
f 7/2/1 6/2/1 5/2/1
f 8/2/1 6/2/1 7/2/1
f 9/1/1 8/1/1 7/1/1
f 10/1/1 8/1/1 9/1/1
f 11/2/1 10/2/1 9/2/1
f 12/2/1 10/2/1 11/2/1
f 13/2/1 10/2/1 12/2/1
f 14/2/1 10/2/1 13/2/1
f 15/1/1 12/1/1 11/1/1
f 16/1/1 12/1/1 15/1/1
f 17/1/1 12/1/1 16/1/1
f 18/3/1 13/3/1 12/3/1
f 18/1/1 12/1/1 17/1/1
f 19/1/1 14/1/1 13/1/1
f 20/1/1 14/1/1 19/1/1
f 21/1/1 14/1/1 20/1/1
f 22/1/1 14/1/1 21/1/1
f 23/3/1 13/3/1 18/3/1
f 23/3/1 18/3/1 17/3/1
f 24/1/1 19/1/1 13/1/1
f 24/3/1 13/3/1 23/3/1
f 25/1/1 19/1/1 24/1/1
f 26/3/1 20/3/1 19/3/1
f 26/1/1 19/1/1 25/1/1
f 27/1/1 21/1/1 20/1/1
f 28/3/1 22/3/1 21/3/1
f 28/1/1 21/1/1 27/1/1
f 29/1/1 15/1/1 11/1/1
f 30/3/1 16/3/1 15/3/1
f 30/1/1 15/1/1 29/1/1
f 31/1/1 25/1/1 24/1/1
f 31/1/1 24/1/1 23/1/1
f 32/3/1 26/3/1 25/3/1
f 32/1/1 25/1/1 31/1/1
f 33/1/1 27/1/1 20/1/1
f 33/3/1 26/3/1 32/3/1
f 33/3/1 20/3/1 26/3/1
f 34/1/1 27/1/1 33/1/1
f 35/1/1 27/1/1 34/1/1
f 36/3/1 28/3/1 27/3/1
f 36/1/1 27/1/1 35/1/1
f 37/3/1 22/3/1 28/3/1
f 37/3/1 28/3/1 36/3/1
f 38/1/1 14/1/1 22/1/1
f 38/3/1 22/3/1 37/3/1
f 39/1/1 29/1/1 11/1/1
f 40/3/1 30/3/1 29/3/1
f 40/1/1 29/1/1 39/1/1
f 41/1/1 17/1/1 16/1/1
f 41/3/1 30/3/1 40/3/1
f 41/3/1 16/3/1 30/3/1
f 42/3/1 23/3/1 17/3/1
f 42/1/1 17/1/1 41/1/1
f 43/1/1 31/1/1 23/1/1
f 43/3/1 23/3/1 42/3/1
f 44/3/1 32/3/1 31/3/1
f 44/1/1 31/1/1 43/1/1
f 44/3/1 33/3/1 32/3/1
f 44/3/1 34/3/1 33/3/1
f 45/1/1 35/1/1 34/1/1
f 45/3/1 34/3/1 44/3/1
f 46/3/1 37/3/1 36/3/1
f 46/1/1 35/1/1 45/1/1
f 46/3/1 36/3/1 35/3/1
f 47/1/1 38/1/1 37/1/1
f 47/3/1 37/3/1 46/3/1
f 48/1/1 14/1/1 38/1/1
f 48/1/1 38/1/1 47/1/1
f 49/3/1 40/3/1 39/3/1
f 49/3/1 45/3/1 44/3/1
f 49/3/1 48/3/1 47/3/1
f 49/3/1 42/3/1 41/3/1
f 49/3/1 44/3/1 43/3/1
f 49/3/1 46/3/1 45/3/1
f 49/3/1 41/3/1 40/3/1
f 49/3/1 43/3/1 42/3/1
f 49/3/1 47/3/1 46/3/1
f 50/3/1 48/3/1 49/3/1
f 51/2/2 52/2/2 53/2/2
f 53/2/2 52/2/2 54/2/2
f 53/1/2 54/1/2 55/1/2
f 55/1/2 54/1/2 56/1/2
f 55/2/2 56/2/2 57/2/2
f 57/2/2 56/2/2 58/2/2
f 57/1/2 58/1/2 59/1/2
f 59/1/2 58/1/2 60/1/2
f 59/2/2 60/2/2 61/2/2
f 61/2/2 60/2/2 62/2/2
f 62/2/2 60/2/2 63/2/2
f 63/2/2 60/2/2 64/2/2
f 64/2/2 60/2/2 65/2/2
f 65/2/2 60/2/2 66/2/2
f 61/1/2 62/1/2 67/1/2
f 67/1/2 62/1/2 68/1/2
f 62/3/2 63/3/2 69/3/2
f 68/1/2 62/1/2 69/1/2
f 63/1/2 64/1/2 70/1/2
f 69/3/2 63/3/2 70/3/2
f 70/1/2 64/1/2 71/1/2
f 71/1/2 64/1/2 72/1/2
f 64/3/2 65/3/2 73/3/2
f 72/1/2 64/1/2 73/1/2
f 73/3/2 65/3/2 74/3/2
f 65/1/2 66/1/2 75/1/2
f 74/3/2 65/3/2 75/3/2
f 75/1/2 66/1/2 76/1/2
f 76/1/2 66/1/2 77/1/2
f 77/1/2 66/1/2 78/1/2
f 78/1/2 66/1/2 79/1/2
f 61/1/2 67/1/2 80/1/2
f 67/3/2 68/3/2 81/3/2
f 80/1/2 67/1/2 81/1/2
f 71/1/2 72/1/2 82/1/2
f 82/1/2 72/1/2 83/1/2
f 83/1/2 72/1/2 84/1/2
f 73/3/2 74/3/2 85/3/2
f 84/1/2 72/1/2 85/1/2
f 72/3/2 73/3/2 85/3/2
f 85/3/2 74/3/2 86/3/2
f 74/1/2 75/1/2 87/1/2
f 86/3/2 74/3/2 87/3/2
f 75/1/2 76/1/2 87/1/2
f 76/3/2 77/3/2 88/3/2
f 87/1/2 76/1/2 88/1/2
f 77/1/2 78/1/2 89/1/2
f 88/3/2 77/3/2 89/3/2
f 89/1/2 78/1/2 90/1/2
f 90/1/2 78/1/2 91/1/2
f 91/1/2 78/1/2 92/1/2
f 78/3/2 79/3/2 93/3/2
f 92/1/2 78/1/2 93/1/2
f 79/1/2 66/1/2 94/1/2
f 93/3/2 79/3/2 94/3/2
f 61/1/2 80/1/2 95/1/2
f 80/3/2 81/3/2 96/3/2
f 95/1/2 80/1/2 96/1/2
f 81/3/2 68/3/2 97/3/2
f 96/3/2 81/3/2 97/3/2
f 68/1/2 69/1/2 98/1/2
f 97/3/2 68/3/2 98/3/2
f 69/1/2 70/1/2 98/1/2
f 98/1/2 70/1/2 99/1/2
f 70/3/2 71/3/2 100/3/2
f 99/1/2 70/1/2 100/1/2
f 82/3/2 83/3/2 101/3/2
f 71/1/2 82/1/2 101/1/2
f 101/3/2 83/3/2 102/3/2
f 83/1/2 84/1/2 103/1/2
f 102/3/2 83/3/2 103/3/2
f 103/1/2 84/1/2 104/1/2
f 85/3/2 86/3/2 105/3/2
f 104/1/2 84/1/2 105/1/2
f 84/3/2 85/3/2 105/3/2
f 105/3/2 86/3/2 106/3/2
f 86/1/2 87/1/2 107/1/2
f 106/3/2 86/3/2 107/3/2
f 87/1/2 88/1/2 107/1/2
f 88/1/2 89/1/2 107/1/2
f 107/1/2 89/1/2 108/1/2
f 89/3/2 90/3/2 109/3/2
f 90/1/2 91/1/2 109/1/2
f 91/3/2 92/3/2 110/3/2
f 109/1/2 91/1/2 110/1/2
f 61/1/2 95/1/2 111/1/2
f 96/3/2 97/3/2 112/3/2
f 111/1/2 95/1/2 112/1/2
f 95/3/2 96/3/2 112/3/2
f 98/1/2 99/1/2 113/1/2
f 112/3/2 97/3/2 113/3/2
f 97/1/2 98/1/2 113/1/2
f 99/3/2 100/3/2 114/3/2
f 113/1/2 99/1/2 114/1/2
f 101/1/2 102/1/2 115/1/2
f 114/3/2 100/3/2 115/3/2
f 100/3/2 71/3/2 115/3/2
f 71/1/2 101/1/2 115/1/2
f 103/3/2 104/3/2 116/3/2
f 115/1/2 102/1/2 116/1/2
f 102/3/2 103/3/2 116/3/2
f 105/1/2 106/1/2 117/1/2
f 116/3/2 104/3/2 117/3/2
f 104/1/2 105/1/2 117/1/2
f 106/3/2 107/3/2 118/3/2
f 117/1/2 106/1/2 118/1/2
f 107/3/2 108/3/2 118/3/2
f 108/1/2 89/1/2 119/1/2
f 118/3/2 108/3/2 119/3/2
f 109/3/2 110/3/2 120/3/2
f 119/1/2 89/1/2 120/1/2
f 89/3/2 109/3/2 120/3/2
f 92/1/2 93/1/2 121/1/2
f 120/3/2 110/3/2 121/3/2
f 93/1/2 94/1/2 121/1/2
f 110/3/2 92/3/2 121/3/2
f 94/1/2 66/1/2 122/1/2
f 121/1/2 94/1/2 122/1/2
f 120/3/2 121/3/2 123/3/2
f 118/3/2 119/3/2 123/3/2
f 121/3/2 122/3/2 123/3/2
f 115/3/2 116/3/2 123/3/2
f 117/3/2 118/3/2 123/3/2
f 114/3/2 115/3/2 123/3/2
f 116/3/2 117/3/2 123/3/2
f 111/3/2 112/3/2 123/3/2
f 112/3/2 113/3/2 123/3/2
f 119/3/2 120/3/2 123/3/2
f 113/3/2 114/3/2 123/3/2
f 123/3/2 122/3/2 124/3/2
f 133/1/3 131/1/3 130/1/3
f 134/1/3 131/1/3 133/1/3
f 135/3/3 134/3/3 133/3/3
f 135/1/3 131/1/3 134/1/3
f 136/3/3 132/3/3 131/3/3
f 136/1/3 131/1/3 135/1/3
f 137/3/3 135/3/3 133/3/3
f 137/1/3 133/1/3 130/1/3
f 137/3/3 136/3/3 135/3/3
f 138/3/3 136/3/3 137/3/3
f 139/1/3 138/1/3 137/1/3
f 139/3/3 136/3/3 138/3/3
f 140/3/3 132/3/3 136/3/3
f 140/3/3 136/3/3 139/3/3
f 141/1/3 139/1/3 137/1/3
f 141/1/3 140/1/3 139/1/3
f 142/3/3 132/3/3 140/3/3
f 142/1/3 140/1/3 141/1/3
f 143/1/3 141/1/3 137/1/3
f 143/1/3 137/1/3 130/1/3
f 144/3/3 142/3/3 141/3/3
f 144/1/3 141/1/3 143/1/3
f 145/3/3 132/3/3 142/3/3
f 145/3/3 142/3/3 144/3/3
f 146/3/3 144/3/3 143/3/3
f 146/1/3 143/1/3 130/1/3
f 147/1/3 145/1/3 144/1/3
f 147/3/3 144/3/3 146/3/3
f 148/1/3 146/1/3 130/1/3
f 148/1/3 147/1/3 146/1/3
f 149/1/3 145/1/3 147/1/3
f 149/1/3 147/1/3 148/1/3
f 150/1/3 148/1/3 130/1/3
f 150/3/3 149/3/3 148/3/3
f 151/3/3 149/3/3 150/3/3
f 152/1/3 145/1/3 149/1/3
f 152/3/3 149/3/3 151/3/3
f 153/3/3 132/3/3 145/3/3
f 153/1/3 145/1/3 152/1/3
f 154/3/3 152/3/3 151/3/3
f 154/1/3 151/1/3 150/1/3
f 154/3/3 153/3/3 152/3/3
f 155/3/3 132/3/3 153/3/3
f 155/3/3 153/3/3 154/3/3
f 156/1/3 154/1/3 150/1/3
f 156/1/3 150/1/3 130/1/3
f 156/1/3 155/1/3 154/1/3
f 157/1/3 155/1/3 156/1/3
f 158/1/3 156/1/3 130/1/3
f 158/3/3 157/3/3 156/3/3
f 159/3/3 157/3/3 158/3/3
f 160/1/3 155/1/3 157/1/3
f 160/3/3 157/3/3 159/3/3
f 161/3/3 132/3/3 155/3/3
f 161/1/3 155/1/3 160/1/3
f 162/3/3 160/3/3 159/3/3
f 162/1/3 159/1/3 158/1/3
f 162/3/3 161/3/3 160/3/3
f 163/3/3 161/3/3 162/3/3
f 164/1/3 163/1/3 162/1/3
f 164/3/3 161/3/3 163/3/3
f 165/3/3 132/3/3 161/3/3
f 165/3/3 161/3/3 164/3/3
f 166/1/3 164/1/3 162/1/3
f 166/1/3 165/1/3 164/1/3
f 167/3/3 132/3/3 165/3/3
f 167/1/3 165/1/3 166/1/3
f 168/1/3 166/1/3 162/1/3
f 168/1/3 162/1/3 158/1/3
f 169/3/3 167/3/3 166/3/3
f 169/1/3 166/1/3 168/1/3
f 170/1/3 158/1/3 130/1/3
f 170/1/3 168/1/3 158/1/3
f 171/3/3 169/3/3 168/3/3
f 171/1/3 168/1/3 170/1/3
f 172/3/3 167/3/3 169/3/3
f 172/3/3 169/3/3 171/3/3
f 173/3/3 132/3/3 167/3/3
f 173/3/3 167/3/3 172/3/3
f 174/3/3 172/3/3 171/3/3
f 174/3/3 171/3/3 170/3/3
f 175/1/3 173/1/3 172/1/3
f 175/3/3 172/3/3 174/3/3
f 176/3/3 174/3/3 170/3/3
f 176/1/3 170/1/3 130/1/3
f 177/1/3 175/1/3 174/1/3
f 177/3/3 174/3/3 176/3/3
f 178/1/3 177/1/3 176/1/3
f 178/1/3 175/1/3 177/1/3
f 179/1/3 173/1/3 175/1/3
f 179/1/3 175/1/3 178/1/3
f 180/3/3 179/3/3 178/3/3
f 180/1/3 173/1/3 179/1/3
f 181/3/3 132/3/3 173/3/3
f 181/1/3 173/1/3 180/1/3
f 182/3/3 180/3/3 178/3/3
f 182/1/3 178/1/3 176/1/3
f 182/3/3 181/3/3 180/3/3
f 183/3/3 181/3/3 182/3/3
f 184/1/3 183/1/3 182/1/3
f 184/3/3 181/3/3 183/3/3
f 185/3/3 132/3/3 181/3/3
f 185/3/3 181/3/3 184/3/3
f 186/2/3 126/2/3 125/2/3
f 187/1/3 127/1/3 126/1/3
f 187/2/3 126/2/3 186/2/3
f 188/2/3 128/2/3 127/2/3
f 188/1/3 127/1/3 187/1/3
f 189/1/3 129/1/3 128/1/3
f 189/2/3 128/2/3 188/2/3
f 190/2/3 130/2/3 129/2/3
f 190/1/3 129/1/3 189/1/3
f 191/1/3 184/1/3 182/1/3
f 191/2/3 130/2/3 190/2/3
f 191/1/3 176/1/3 130/1/3
f 191/1/3 185/1/3 184/1/3
f 191/1/3 182/1/3 176/1/3
f 192/3/3 132/3/3 185/3/3
f 192/1/3 185/1/3 191/1/3
f 193/3/3 132/3/3 192/3/3
f 198/2/4 199/2/4 202/2/4
f 199/1/4 200/1/4 202/1/4
f 202/1/4 200/1/4 203/1/4
f 203/1/4 200/1/4 204/1/4
f 200/3/4 201/3/4 205/3/4
f 204/1/4 200/1/4 205/1/4
f 203/1/4 204/1/4 206/1/4
f 202/3/4 203/3/4 206/3/4
f 204/3/4 205/3/4 207/3/4
f 206/1/4 204/1/4 207/1/4
f 198/2/4 202/2/4 208/2/4
f 202/3/4 206/3/4 208/3/4
f 206/3/4 207/3/4 208/3/4
f 205/3/4 201/3/4 209/3/4
f 208/3/4 207/3/4 209/3/4
f 207/3/4 205/3/4 209/3/4
f 208/1/4 209/1/4 210/1/4
f 210/1/4 209/1/4 211/1/4
f 208/1/4 210/1/4 212/1/4
f 210/3/4 211/3/4 212/3/4
f 212/3/4 211/3/4 213/3/4
f 211/1/4 209/1/4 214/1/4
f 213/3/4 211/3/4 214/3/4
f 209/3/4 201/3/4 215/3/4
f 214/1/4 209/1/4 215/1/4
f 213/3/4 214/3/4 216/3/4
f 212/1/4 213/1/4 216/1/4
f 214/3/4 215/3/4 216/3/4
f 216/3/4 215/3/4 217/3/4
f 216/1/4 217/1/4 218/1/4
f 217/3/4 215/3/4 218/3/4
f 215/3/4 201/3/4 219/3/4
f 218/3/4 215/3/4 219/3/4
f 216/1/4 218/1/4 220/1/4
f 218/1/4 219/1/4 220/1/4
f 219/3/4 201/3/4 221/3/4
f 220/1/4 219/1/4 221/1/4
f 216/1/4 220/1/4 222/1/4
f 212/1/4 216/1/4 222/1/4
f 220/3/4 221/3/4 223/3/4
f 222/1/4 220/1/4 223/1/4
f 208/1/4 212/1/4 224/1/4
f 212/1/4 222/1/4 224/1/4
f 222/3/4 223/3/4 225/3/4
f 224/1/4 222/1/4 225/1/4
f 223/3/4 221/3/4 226/3/4
f 225/3/4 223/3/4 226/3/4
f 221/3/4 201/3/4 227/3/4
f 226/3/4 221/3/4 227/3/4
f 225/3/4 226/3/4 228/3/4
f 224/3/4 225/3/4 228/3/4
f 226/1/4 227/1/4 229/1/4
f 228/3/4 226/3/4 229/3/4
f 224/3/4 228/3/4 230/3/4
f 208/1/4 224/1/4 230/1/4
f 228/1/4 229/1/4 231/1/4
f 230/3/4 228/3/4 231/3/4
f 229/1/4 227/1/4 232/1/4
f 231/1/4 229/1/4 232/1/4
f 230/1/4 231/1/4 232/1/4
f 227/3/4 201/3/4 233/3/4
f 232/1/4 227/1/4 233/1/4
f 230/1/4 232/1/4 234/1/4
f 232/3/4 233/3/4 235/3/4
f 234/1/4 232/1/4 235/1/4
f 234/3/4 235/3/4 236/3/4
f 235/3/4 233/3/4 236/3/4
f 233/3/4 201/3/4 237/3/4
f 236/3/4 233/3/4 237/3/4
f 234/3/4 236/3/4 238/3/4
f 230/1/4 234/1/4 238/1/4
f 236/1/4 237/1/4 239/1/4
f 238/3/4 236/3/4 239/3/4
f 198/2/4 208/2/4 240/2/4
f 208/1/4 230/1/4 240/1/4
f 238/1/4 239/1/4 240/1/4
f 230/1/4 238/1/4 240/1/4
f 240/1/4 239/1/4 241/1/4
f 240/3/4 241/3/4 242/3/4
f 241/1/4 239/1/4 242/1/4
f 242/1/4 239/1/4 243/1/4
f 198/2/4 240/2/4 244/2/4
f 240/3/4 242/3/4 244/3/4
f 242/3/4 243/3/4 244/3/4
f 243/1/4 239/1/4 245/1/4
f 244/3/4 243/3/4 245/3/4
f 239/1/4 237/1/4 246/1/4
f 245/1/4 239/1/4 246/1/4
f 244/1/4 245/1/4 247/1/4
f 245/3/4 246/3/4 247/3/4
f 246/1/4 237/1/4 248/1/4
f 247/3/4 246/3/4 248/3/4
f 237/3/4 201/3/4 249/3/4
f 248/1/4 237/1/4 249/1/4
f 247/1/4 248/1/4 250/1/4
f 248/3/4 249/3/4 250/3/4
f 249/3/4 201/3/4 251/3/4
f 250/3/4 249/3/4 251/3/4
f 247/1/4 250/1/4 252/1/4
f 250/1/4 251/1/4 252/1/4
f 251/3/4 201/3/4 253/3/4
f 252/1/4 251/1/4 253/1/4
f 244/1/4 247/1/4 254/1/4
f 247/1/4 252/1/4 254/1/4
f 252/3/4 253/3/4 255/3/4
f 254/1/4 252/1/4 255/1/4
f 254/3/4 255/3/4 256/3/4
f 255/3/4 253/3/4 256/3/4
f 253/3/4 201/3/4 257/3/4
f 256/3/4 253/3/4 257/3/4
f 254/3/4 256/3/4 258/3/4
f 244/1/4 254/1/4 258/1/4
f 256/1/4 257/1/4 259/1/4
f 258/3/4 256/3/4 259/3/4
f 258/1/4 259/1/4 260/1/4
f 259/1/4 257/1/4 260/1/4
f 257/3/4 201/3/4 261/3/4
f 260/1/4 257/1/4 261/1/4
f 258/1/4 260/1/4 262/1/4
f 244/1/4 258/1/4 262/1/4
f 260/3/4 261/3/4 263/3/4
f 262/1/4 260/1/4 263/1/4
f 261/3/4 201/3/4 264/3/4
f 263/3/4 261/3/4 264/3/4
f 262/3/4 263/3/4 265/3/4
f 244/1/4 262/1/4 265/1/4
f 263/1/4 264/1/4 266/1/4
f 265/3/4 263/3/4 266/3/4
f 194/2/4 195/2/4 267/2/4
f 195/1/4 196/1/4 268/1/4
f 267/2/4 195/2/4 268/2/4
f 196/2/4 197/2/4 269/2/4
f 268/1/4 196/1/4 269/1/4
f 197/1/4 198/1/4 270/1/4
f 269/2/4 197/2/4 270/2/4
f 198/2/4 244/2/4 271/2/4
f 270/1/4 198/1/4 271/1/4
f 244/1/4 265/1/4 272/1/4
f 271/2/4 244/2/4 272/2/4
f 265/1/4 266/1/4 272/1/4
f 266/1/4 264/1/4 273/1/4
f 272/1/4 266/1/4 273/1/4
f 264/3/4 201/3/4 273/3/4
f 273/3/4 201/3/4 274/3/4
f 277/2/5 276/2/5 275/2/5
f 278/2/5 276/2/5 277/2/5
f 279/3/6 280/3/6 281/3/6
f 281/3/6 280/3/6 282/3/6
